<svg width="160" height="23" viewBox="0 0 160 23" fill="none" xmlns="http://www.w3.org/2000/svg">
<path d="M54.5461 22.0247C53.3119 22.0247 52.2867 21.8158 51.4705 21.3978C50.6544 20.9797 50.0472 20.4223 49.6491 19.7256C49.2509 19.0288 49.0519 18.2724 49.0519 17.4562C49.0519 15.9433 49.6292 14.7788 50.7838 13.9626C51.9383 13.1464 53.511 12.7383 55.5016 12.7383H59.5028V12.5592C59.5028 11.2654 59.1644 10.2899 58.4876 9.63298C57.8108 8.95618 56.905 8.61777 55.7703 8.61777C54.7949 8.61777 53.9489 8.86661 53.2323 9.36427C52.5355 9.84192 52.0976 10.5487 51.9184 11.4842H49.3505C49.45 10.4093 49.8083 9.50352 50.4254 8.76696C51.0624 8.03054 51.8487 7.47312 52.7844 7.09483C53.72 6.69681 54.7153 6.49766 55.7703 6.49766C57.8406 6.49766 59.3933 7.05509 60.4285 8.16979C61.4835 9.26462 62.0111 10.7278 62.0111 12.5592V21.6665H59.7716L59.6223 19.009C59.2042 19.845 58.5871 20.5617 57.771 21.1589C56.9747 21.7362 55.8997 22.0247 54.5461 22.0247ZM54.9343 19.9048C55.8898 19.9048 56.706 19.656 57.3828 19.1583C58.0795 18.6606 58.607 18.0136 58.9653 17.2173C59.3237 16.4211 59.5028 15.5851 59.5028 14.7091V14.6793H55.7106C54.2375 14.6793 53.1924 14.9381 52.5753 15.4556C51.9781 15.9533 51.6795 16.5804 51.6795 17.3368C51.6795 18.1131 51.9582 18.7403 52.5156 19.2179C53.0929 19.6758 53.8991 19.9048 54.9343 19.9048ZM65.7738 21.6665V6.85593H68.0432L68.1926 9.51345C68.6702 8.57788 69.3571 7.84133 70.2528 7.30392C71.1486 6.76637 72.1638 6.49766 73.2985 6.49766C75.0503 6.49766 76.4438 7.03522 77.4788 8.11018C78.5339 9.16512 79.0616 10.7975 79.0616 13.0072V21.6665H76.5532V13.2759C76.5532 10.1904 75.2792 8.64758 72.7312 8.64758C71.4572 8.64758 70.3922 9.11544 69.5362 10.051C68.7002 10.9667 68.2821 12.2806 68.2821 13.9924V21.6665H65.7738ZM87.7885 22.0247C86.5543 22.0247 85.5292 21.8158 84.713 21.3978C83.8968 20.9797 83.2897 20.4223 82.8915 19.7256C82.4934 19.0288 82.2943 18.2724 82.2943 17.4562C82.2943 15.9433 82.8715 14.7788 84.0261 13.9626C85.1807 13.1464 86.7533 12.7383 88.744 12.7383H92.7453V12.5592C92.7453 11.2654 92.4067 10.2899 91.7299 9.63298C91.0532 8.95618 90.1474 8.61777 89.0128 8.61777C88.0374 8.61777 87.1914 8.86661 86.4747 9.36427C85.778 9.84192 85.3399 10.5487 85.1608 11.4842H82.5929C82.6924 10.4093 83.0508 9.50352 83.6678 8.76696C84.3049 8.03054 85.0911 7.47312 86.0268 7.09483C86.9624 6.69681 87.9577 6.49766 89.0128 6.49766C91.083 6.49766 92.6357 7.05509 93.6709 8.16979C94.7259 9.26462 95.2535 10.7278 95.2535 12.5592V21.6665H93.014L92.8647 19.009C92.4466 19.845 91.8294 20.5617 91.0134 21.1589C90.2171 21.7362 89.1421 22.0247 87.7885 22.0247ZM88.1766 19.9048C89.1322 19.9048 89.9484 19.656 90.6252 19.1583C91.3219 18.6606 91.8495 18.0136 92.2077 17.2173C92.566 16.4211 92.7453 15.5851 92.7453 14.7091V14.6793H88.9531C87.4799 14.6793 86.4348 14.9381 85.8177 15.4556C85.2206 15.9533 84.9219 16.5804 84.9219 17.3368C84.9219 18.1131 85.2007 18.7403 85.758 19.2179C86.3353 19.6758 87.1415 19.9048 88.1766 19.9048ZM99.0162 21.6665V6.85593H101.286L101.435 9.51345C101.913 8.57788 102.599 7.84133 103.495 7.30392C104.391 6.76637 105.406 6.49766 106.541 6.49766C108.293 6.49766 109.686 7.03522 110.721 8.11018C111.776 9.16512 112.304 10.7975 112.304 13.0072V21.6665H109.796V13.2759C109.796 10.1904 108.522 8.64758 105.974 8.64758C104.7 8.64758 103.635 9.11544 102.779 10.051C101.943 10.9667 101.525 12.2806 101.525 13.9924V21.6665H99.0162ZM121.957 21.6665C120.603 21.6665 119.538 21.338 118.761 20.6811C117.985 20.0242 117.597 18.8398 117.597 17.1277V8.97605H115.029V6.85593H117.597L117.925 3.30273H120.105V6.85593H124.465V8.97605H120.105V17.1277C120.105 18.0635 120.294 18.7004 120.673 19.0388C121.051 19.3573 121.718 19.5166 122.673 19.5166H124.226V21.6665H121.957ZM132.578 22.0247C131.344 22.0247 130.319 21.8158 129.503 21.3978C128.687 20.9797 128.079 20.4223 127.681 19.7256C127.283 19.0288 127.084 18.2724 127.084 17.4562C127.084 15.9433 127.661 14.7788 128.816 13.9626C129.97 13.1464 131.543 12.7383 133.534 12.7383H137.535V12.5592C137.535 11.2654 137.197 10.2899 136.52 9.63298C135.843 8.95618 134.937 8.61777 133.803 8.61777C132.827 8.61777 131.981 8.86661 131.264 9.36427C130.568 9.84192 130.13 10.5487 129.951 11.4842H127.383C127.482 10.4093 127.841 9.50352 128.458 8.76696C129.095 8.03054 129.881 7.47312 130.817 7.09483C131.752 6.69681 132.747 6.49766 133.803 6.49766C135.873 6.49766 137.425 7.05509 138.461 8.16979C139.516 9.26462 140.043 10.7278 140.043 12.5592V21.6665H137.804L137.654 19.009C137.236 19.845 136.619 20.5617 135.803 21.1589C135.007 21.7362 133.932 22.0247 132.578 22.0247ZM132.966 19.9048C133.922 19.9048 134.738 19.656 135.415 19.1583C136.112 18.6606 136.639 18.0136 136.997 17.2173C137.356 16.4211 137.535 15.5851 137.535 14.7091V14.6793H133.743C132.27 14.6793 131.225 14.9381 130.607 15.4556C130.01 15.9533 129.712 16.5804 129.712 17.3368C129.712 18.1131 129.99 18.7403 130.548 19.2179C131.125 19.6758 131.931 19.9048 132.966 19.9048ZM144.672 21.8158C144.174 21.8158 143.756 21.6565 143.418 21.338C143.099 20.9996 142.94 20.5915 142.94 20.1137C142.94 19.6361 143.099 19.2379 143.418 18.9194C143.756 18.581 144.174 18.4118 144.672 18.4118C145.15 18.4118 145.548 18.581 145.866 18.9194C146.205 19.2379 146.374 19.6361 146.374 20.1137C146.374 20.5915 146.205 20.9996 145.866 21.338C145.548 21.6565 145.15 21.8158 144.672 21.8158Z" fill="black"/>
<mask id="mask0_76_7526" style="mask-type:luminance" maskUnits="userSpaceOnUse" x="48" y="2" width="99" height="21">
<path d="M146.744 2.94647H48.6803V22.3865H146.744V2.94647Z" fill="white"/>
<path d="M54.5461 22.0247C53.3119 22.0247 52.2867 21.8158 51.4705 21.3978C50.6544 20.9797 50.0472 20.4223 49.6491 19.7256C49.2509 19.0288 49.0519 18.2724 49.0519 17.4562C49.0519 15.9433 49.6292 14.7788 50.7838 13.9626C51.9383 13.1464 53.511 12.7383 55.5016 12.7383H59.5028V12.5592C59.5028 11.2654 59.1644 10.2899 58.4876 9.63298C57.8108 8.95618 56.905 8.61777 55.7703 8.61777C54.7949 8.61777 53.9489 8.86661 53.2323 9.36427C52.5355 9.84192 52.0976 10.5487 51.9184 11.4842H49.3505C49.45 10.4093 49.8083 9.50352 50.4254 8.76696C51.0624 8.03054 51.8487 7.47312 52.7844 7.09483C53.72 6.69681 54.7153 6.49766 55.7703 6.49766C57.8406 6.49766 59.3933 7.05509 60.4285 8.16979C61.4835 9.26462 62.0111 10.7278 62.0111 12.5592V21.6665H59.7716L59.6223 19.009C59.2042 19.845 58.5871 20.5617 57.771 21.1589C56.9747 21.7362 55.8997 22.0247 54.5461 22.0247ZM54.9343 19.9048C55.8898 19.9048 56.706 19.656 57.3828 19.1583C58.0795 18.6606 58.607 18.0136 58.9653 17.2173C59.3237 16.4211 59.5028 15.5851 59.5028 14.7091V14.6793H55.7106C54.2375 14.6793 53.1924 14.9381 52.5753 15.4556C51.9781 15.9533 51.6795 16.5804 51.6795 17.3368C51.6795 18.1131 51.9582 18.7403 52.5156 19.2179C53.0929 19.6758 53.8991 19.9048 54.9343 19.9048ZM65.7738 21.6665V6.85593H68.0432L68.1926 9.51345C68.6702 8.57788 69.3571 7.84133 70.2528 7.30392C71.1486 6.76637 72.1638 6.49766 73.2985 6.49766C75.0503 6.49766 76.4438 7.03522 77.4788 8.11018C78.5339 9.16512 79.0616 10.7975 79.0616 13.0072V21.6665H76.5532V13.2759C76.5532 10.1904 75.2792 8.64758 72.7312 8.64758C71.4572 8.64758 70.3922 9.11544 69.5362 10.051C68.7002 10.9667 68.2821 12.2806 68.2821 13.9924V21.6665H65.7738ZM87.7885 22.0247C86.5543 22.0247 85.5292 21.8158 84.713 21.3978C83.8968 20.9797 83.2897 20.4223 82.8915 19.7256C82.4934 19.0288 82.2943 18.2724 82.2943 17.4562C82.2943 15.9433 82.8715 14.7788 84.0261 13.9626C85.1807 13.1464 86.7533 12.7383 88.744 12.7383H92.7453V12.5592C92.7453 11.2654 92.4067 10.2899 91.7299 9.63298C91.0532 8.95618 90.1474 8.61777 89.0128 8.61777C88.0374 8.61777 87.1914 8.86661 86.4747 9.36427C85.778 9.84192 85.3399 10.5487 85.1608 11.4842H82.5929C82.6924 10.4093 83.0508 9.50352 83.6678 8.76696C84.3049 8.03054 85.0911 7.47312 86.0268 7.09483C86.9624 6.69681 87.9577 6.49766 89.0128 6.49766C91.083 6.49766 92.6357 7.05509 93.6709 8.16979C94.7259 9.26462 95.2535 10.7278 95.2535 12.5592V21.6665H93.014L92.8647 19.009C92.4466 19.845 91.8294 20.5617 91.0134 21.1589C90.2171 21.7362 89.1421 22.0247 87.7885 22.0247ZM88.1766 19.9048C89.1322 19.9048 89.9484 19.656 90.6252 19.1583C91.3219 18.6606 91.8495 18.0136 92.2077 17.2173C92.566 16.4211 92.7453 15.5851 92.7453 14.7091V14.6793H88.9531C87.4799 14.6793 86.4348 14.9381 85.8177 15.4556C85.2206 15.9533 84.9219 16.5804 84.9219 17.3368C84.9219 18.1131 85.2007 18.7403 85.758 19.2179C86.3353 19.6758 87.1415 19.9048 88.1766 19.9048ZM99.0162 21.6665V6.85593H101.286L101.435 9.51345C101.913 8.57788 102.599 7.84133 103.495 7.30392C104.391 6.76637 105.406 6.49766 106.541 6.49766C108.293 6.49766 109.686 7.03522 110.721 8.11018C111.776 9.16512 112.304 10.7975 112.304 13.0072V21.6665H109.796V13.2759C109.796 10.1904 108.522 8.64758 105.974 8.64758C104.7 8.64758 103.635 9.11544 102.779 10.051C101.943 10.9667 101.525 12.2806 101.525 13.9924V21.6665H99.0162ZM121.957 21.6665C120.603 21.6665 119.538 21.338 118.761 20.6811C117.985 20.0242 117.597 18.8398 117.597 17.1277V8.97605H115.029V6.85593H117.597L117.925 3.30273H120.105V6.85593H124.465V8.97605H120.105V17.1277C120.105 18.0635 120.294 18.7004 120.673 19.0388C121.051 19.3573 121.718 19.5166 122.673 19.5166H124.226V21.6665H121.957ZM132.578 22.0247C131.344 22.0247 130.319 21.8158 129.503 21.3978C128.687 20.9797 128.079 20.4223 127.681 19.7256C127.283 19.0288 127.084 18.2724 127.084 17.4562C127.084 15.9433 127.661 14.7788 128.816 13.9626C129.97 13.1464 131.543 12.7383 133.534 12.7383H137.535V12.5592C137.535 11.2654 137.197 10.2899 136.52 9.63298C135.843 8.95618 134.937 8.61777 133.803 8.61777C132.827 8.61777 131.981 8.86661 131.264 9.36427C130.568 9.84192 130.13 10.5487 129.951 11.4842H127.383C127.482 10.4093 127.841 9.50352 128.458 8.76696C129.095 8.03054 129.881 7.47312 130.817 7.09483C131.752 6.69681 132.747 6.49766 133.803 6.49766C135.873 6.49766 137.425 7.05509 138.461 8.16979C139.516 9.26462 140.043 10.7278 140.043 12.5592V21.6665H137.804L137.654 19.009C137.236 19.845 136.619 20.5617 135.803 21.1589C135.007 21.7362 133.932 22.0247 132.578 22.0247ZM132.966 19.9048C133.922 19.9048 134.738 19.656 135.415 19.1583C136.112 18.6606 136.639 18.0136 136.997 17.2173C137.356 16.4211 137.535 15.5851 137.535 14.7091V14.6793H133.743C132.27 14.6793 131.225 14.9381 130.607 15.4556C130.01 15.9533 129.712 16.5804 129.712 17.3368C129.712 18.1131 129.99 18.7403 130.548 19.2179C131.125 19.6758 131.931 19.9048 132.966 19.9048ZM144.672 21.8158C144.174 21.8158 143.756 21.6565 143.418 21.338C143.099 20.9996 142.94 20.5915 142.94 20.1137C142.94 19.6361 143.099 19.2379 143.418 18.9194C143.756 18.581 144.174 18.4118 144.672 18.4118C145.15 18.4118 145.548 18.581 145.866 18.9194C146.205 19.2379 146.374 19.6361 146.374 20.1137C146.374 20.5915 146.205 20.9996 145.866 21.338C145.548 21.6565 145.15 21.8158 144.672 21.8158Z" fill="black"/>
</mask>
<g mask="url(#mask0_76_7526)">
<path d="M59.5029 12.7383V13.0263H59.7909V12.7383H59.5029ZM58.4876 9.63295L58.284 9.83657L58.2855 9.83815L58.287 9.83959L58.4876 9.63295ZM53.2323 9.36425L53.3952 9.6017L53.3966 9.6007L53.2323 9.36425ZM51.9185 11.4842V11.7722H52.1565L52.2013 11.5384L51.9185 11.4842ZM49.3505 11.4842L49.0637 11.4577L49.0346 11.7722H49.3505V11.4842ZM50.4255 8.76693L50.2076 8.57858L50.2062 8.58031L50.2047 8.58204L50.4255 8.76693ZM52.7844 7.09481L52.8923 7.36193L52.8948 7.36092L52.8972 7.35991L52.7844 7.09481ZM60.4285 8.16976L60.2175 8.36575L60.2193 8.36777L60.2211 8.36964L60.4285 8.16976ZM62.0111 21.6665V21.9545H62.2991V21.6665H62.0111ZM59.7716 21.6665L59.4841 21.6826L59.4993 21.9545H59.7716V21.6665ZM59.6223 19.0089L59.9098 18.9928L59.8491 17.9114L59.3647 18.8802L59.6223 19.0089ZM57.771 21.1589L57.94 21.392L57.9411 21.3913L57.771 21.1589ZM57.3828 19.1583L57.2154 18.9238L57.2138 18.925L57.2122 18.9261L57.3828 19.1583ZM59.5029 14.6793H59.7909V14.3913H59.5029V14.6793ZM52.5754 15.4556L52.7598 15.6769L52.7604 15.6763L52.5754 15.4556ZM52.5157 19.2179L52.3282 19.4366L52.3324 19.4402L52.3367 19.4435L52.5157 19.2179ZM54.5461 21.7367C53.3425 21.7367 52.3658 21.5327 51.6019 21.1414L51.3393 21.6541C52.2076 22.0989 53.2813 22.3127 54.5461 22.3127V21.7367ZM51.6019 21.1414C50.8281 20.7451 50.2657 20.2242 49.8992 19.5826L49.3991 19.8685C49.8287 20.6204 50.4806 21.2143 51.3393 21.6541L51.6019 21.1414ZM49.8992 19.5826C49.5263 18.9302 49.3399 18.2231 49.3399 17.4562H48.7639C48.7639 18.3216 48.9756 19.1274 49.3991 19.8685L49.8992 19.5826ZM49.3399 17.4562C49.3399 16.0291 49.8779 14.9556 50.95 14.1977L50.6175 13.7274C49.3805 14.6018 48.7639 15.8575 48.7639 17.4562H49.3399ZM50.95 14.1977C52.0398 13.4275 53.547 13.0263 55.5016 13.0263V12.4503C53.4749 12.4503 51.8369 12.8655 50.6175 13.7274L50.95 14.1977ZM55.5016 13.0263H59.5029V12.4503H55.5016V13.0263ZM59.7909 12.7383V12.5592H59.2149V12.7383H59.7909ZM59.7909 12.5592C59.7909 11.2171 59.4392 10.1551 58.6882 9.42631L58.287 9.83959C58.8897 10.4245 59.2149 11.3134 59.2149 12.5592H59.7909ZM58.6913 9.42933C57.9506 8.6886 56.9662 8.32975 55.7704 8.32975V8.90575C56.8439 8.90575 57.6711 9.2237 58.284 9.83657L58.6913 9.42933ZM55.7704 8.32975C54.7435 8.32975 53.8385 8.59255 53.068 9.12765L53.3966 9.6007C54.0594 9.14047 54.8465 8.90575 55.7704 8.90575V8.32975ZM53.0694 9.12665C52.3019 9.65297 51.8271 10.4303 51.6356 11.4301L52.2013 11.5384C52.3682 10.667 52.7692 10.031 53.3952 9.6017L53.0694 9.12665ZM51.9185 11.1962H49.3505V11.7722H51.9185V11.1962ZM49.6373 11.5109C49.7321 10.4866 50.0713 9.63813 50.6462 8.95197L50.2047 8.58204C49.5455 9.36885 49.168 10.3319 49.0637 11.4577L49.6373 11.5109ZM50.6433 8.95543C51.2493 8.25472 51.9975 7.72365 52.8923 7.36193L52.6765 6.82783C51.7001 7.22253 50.8756 7.80631 50.2076 8.57858L50.6433 8.95543ZM52.8972 7.35991C53.7958 6.97745 54.7526 6.78564 55.7704 6.78564V6.20964C54.6781 6.20964 53.6442 6.41599 52.6716 6.82985L52.8972 7.35991ZM55.7704 6.78564C57.7906 6.78564 59.2543 7.32852 60.2175 8.36575L60.6396 7.97378C59.5324 6.78146 57.8908 6.20964 55.7704 6.20964V6.78564ZM60.2211 8.36964C61.2142 9.40025 61.7231 10.7861 61.7231 12.5592H62.2991C62.2991 10.6695 61.7529 9.12909 60.6359 7.96989L60.2211 8.36964ZM61.7231 12.5592V21.6665H62.2991V12.5592H61.7231ZM62.0111 21.3785H59.7716V21.9545H62.0111V21.3785ZM60.0591 21.6503L59.9098 18.9928L59.3348 19.0251L59.4841 21.6826L60.0591 21.6503ZM59.3647 18.8802C58.9688 19.6719 58.3832 20.354 57.6009 20.9264L57.9411 21.3913C58.7911 20.7692 59.4397 20.0181 59.8799 19.1377L59.3647 18.8802ZM57.6019 20.9257C56.8703 21.4561 55.8614 21.7367 54.5461 21.7367V22.3127C55.9381 22.3127 57.0792 22.0161 57.94 21.392L57.6019 20.9257ZM54.9343 20.1928C55.9424 20.1928 56.8205 19.9292 57.5534 19.3902L57.2122 18.9261C56.5915 19.3826 55.8372 19.6168 54.9343 19.6168V20.1928ZM57.5502 19.3926C58.2893 18.8646 58.8492 18.1773 59.228 17.3355L58.7028 17.0992C58.3649 17.8499 57.8698 18.4564 57.2154 18.9238L57.5502 19.3926ZM59.228 17.3355C59.6031 16.502 59.7909 15.6257 59.7909 14.7091H59.2149C59.2149 15.5444 59.0443 16.3402 58.7028 17.0992L59.228 17.3355ZM59.7909 14.7091V14.6793H59.2149V14.7091H59.7909ZM59.5029 14.3913H55.7107V14.9673H59.5029V14.3913ZM55.7107 14.3913C54.2195 14.3913 53.0876 14.6501 52.3903 15.235L52.7604 15.6763C53.2974 15.2259 54.2556 14.9673 55.7107 14.9673V14.3913ZM52.391 15.2344C51.7302 15.7851 51.3916 16.4921 51.3916 17.3368H51.9676C51.9676 16.6685 52.2261 16.1216 52.7598 15.6769L52.391 15.2344ZM51.3916 17.3368C51.3916 18.1917 51.7029 18.9006 52.3282 19.4366L52.7031 18.9993C52.2136 18.5797 51.9676 18.0346 51.9676 17.3368H51.3916ZM52.3367 19.4435C52.982 19.9554 53.86 20.1928 54.9343 20.1928V19.6168C53.9383 19.6168 53.2039 19.3962 52.6946 18.9922L52.3367 19.4435ZM65.7738 21.6665H65.4858V21.9545H65.7738V21.6665ZM65.7738 6.85591V6.56791H65.4858V6.85591H65.7738ZM68.0433 6.85591L68.3309 6.83978L68.3156 6.56791H68.0433V6.85591ZM68.1926 9.51343L67.905 9.5297L67.9647 10.5929L68.4491 9.64447L68.1926 9.51343ZM77.4789 8.11015L77.2715 8.30988L77.2734 8.31175L77.2753 8.31377L77.4789 8.11015ZM79.0616 21.6665V21.9545H79.3496V21.6665H79.0616ZM76.5533 21.6665H76.2653V21.9545H76.5533V21.6665ZM69.5363 10.051L69.3237 9.85658L69.3236 9.85672L69.5363 10.051ZM68.2822 21.6665V21.9545H68.5702V21.6665H68.2822ZM66.0618 21.6665V6.85591H65.4858V21.6665H66.0618ZM65.7738 7.14391H68.0433V6.56791H65.7738V7.14391ZM67.7557 6.87218L67.905 9.5297L68.48 9.4973L68.3309 6.83978L67.7557 6.87218ZM68.4491 9.64447C68.9024 8.75657 69.5518 8.06033 70.401 7.55085L70.1046 7.05693C69.1623 7.62228 68.4381 8.39916 67.936 9.38253L68.4491 9.64447ZM70.401 7.55085C71.2483 7.04253 72.2115 6.78564 73.2986 6.78564V6.20964C72.1163 6.20964 71.0491 6.49029 70.1046 7.05693L70.401 7.55085ZM73.2986 6.78564C74.9868 6.78564 76.3001 7.30116 77.2715 8.30988L77.6864 7.91028C76.5875 6.76922 75.1138 6.20964 73.2986 6.20964V6.78564ZM77.2753 8.31377C78.255 9.29354 78.7736 10.8374 78.7736 13.0072H79.3496C79.3496 10.7576 78.8129 9.03679 77.6826 7.90639L77.2753 8.31377ZM78.7736 13.0072V21.6665H79.3496V13.0072H78.7736ZM79.0616 21.3785H76.5533V21.9545H79.0616V21.3785ZM76.8413 21.6665V13.2759H76.2653V21.6665H76.8413ZM76.8413 13.2759C76.8413 11.7006 76.5173 10.4657 75.8199 9.62129C75.1137 8.76622 74.0657 8.35956 72.7312 8.35956V8.93556C73.9448 8.93556 74.8078 9.30031 75.3758 9.98806C75.9523 10.6863 76.2653 11.7654 76.2653 13.2759H76.8413ZM72.7312 8.35956C71.3769 8.35956 70.2345 8.86097 69.3237 9.85658L69.7487 10.2454C70.5499 9.36972 71.5376 8.93556 72.7312 8.93556V8.35956ZM69.3236 9.85672C68.4232 10.8428 67.9942 12.2362 67.9942 13.9924H68.5702C68.5702 12.3249 68.9771 11.0905 69.749 10.2451L69.3236 9.85672ZM67.9942 13.9924V21.6665H68.5702V13.9924H67.9942ZM68.2822 21.3785H65.7738V21.9545H68.2822V21.3785ZM92.7453 12.7383V13.0263H93.0333V12.7383H92.7453ZM91.73 9.63295L91.5264 9.83657L91.528 9.83815L91.5294 9.83959L91.73 9.63295ZM86.4747 9.36425L86.6376 9.6017L86.639 9.6007L86.4747 9.36425ZM85.1608 11.4842V11.7722H85.3989L85.4437 11.5384L85.1608 11.4842ZM82.5929 11.4842L82.3062 11.4577L82.277 11.7722H82.5929V11.4842ZM83.6679 8.76693L83.45 8.57858L83.4485 8.58031L83.4471 8.58204L83.6679 8.76693ZM86.0269 7.09481L86.1347 7.36193L86.1372 7.36092L86.1396 7.35991L86.0269 7.09481ZM93.671 8.16976L93.4599 8.36575L93.4617 8.36777L93.4636 8.36964L93.671 8.16976ZM95.2535 21.6665V21.9545H95.5415V21.6665H95.2535ZM93.014 21.6665L92.7265 21.6826L92.7417 21.9545H93.014V21.6665ZM92.8647 19.0089L93.1523 18.9928L93.0915 17.9114L92.6071 18.8802L92.8647 19.0089ZM91.0134 21.1589L91.1825 21.392L91.1835 21.3913L91.0134 21.1589ZM90.6252 19.1583L90.4577 18.9238L90.4562 18.925L90.4546 18.9261L90.6252 19.1583ZM92.7453 14.6793H93.0333V14.3913H92.7453V14.6793ZM85.8178 15.4556L86.0021 15.6769L86.0028 15.6763L85.8178 15.4556ZM85.758 19.2179L85.5707 19.4366L85.5748 19.4402L85.579 19.4435L85.758 19.2179ZM87.7886 21.7367C86.5849 21.7367 85.6083 21.5327 84.8442 21.1414L84.5817 21.6541C85.45 22.0989 86.5238 22.3127 87.7886 22.3127V21.7367ZM84.8442 21.1414C84.0705 20.7451 83.5082 20.2242 83.1415 19.5826L82.6414 19.8685C83.0711 20.6204 83.723 21.2143 84.5817 21.6541L84.8442 21.1414ZM83.1415 19.5826C82.7687 18.9302 82.5824 18.2231 82.5824 17.4562H82.0064C82.0064 18.3216 82.2181 19.1274 82.6414 19.8685L83.1415 19.5826ZM82.5824 17.4562C82.5824 16.0291 83.1202 14.9556 84.1925 14.1977L83.86 13.7274C82.623 14.6018 82.0064 15.8575 82.0064 17.4562H82.5824ZM84.1925 14.1977C85.2822 13.4275 86.7895 13.0263 88.744 13.0263V12.4503C86.7174 12.4503 85.0793 12.8655 83.86 13.7274L84.1925 14.1977ZM88.744 13.0263H92.7453V12.4503H88.744V13.0263ZM93.0333 12.7383V12.5592H92.4573V12.7383H93.0333ZM93.0333 12.5592C93.0333 11.2171 92.6815 10.1551 91.9306 9.42631L91.5294 9.83959C92.1322 10.4245 92.4573 11.3134 92.4573 12.5592H93.0333ZM91.9336 9.42933C91.193 8.6886 90.2086 8.32975 89.0128 8.32975V8.90575C90.0862 8.90575 90.9135 9.2237 91.5264 9.83657L91.9336 9.42933ZM89.0128 8.32975C87.9858 8.32975 87.0809 8.59255 86.3104 9.12765L86.639 9.6007C87.3017 9.14047 88.0888 8.90575 89.0128 8.90575V8.32975ZM86.3118 9.12665C85.5443 9.65297 85.0694 10.4303 84.878 11.4301L85.4437 11.5384C85.6106 10.667 86.0116 10.031 86.6376 9.6017L86.3118 9.12665ZM85.1608 11.1962H82.5929V11.7722H85.1608V11.1962ZM82.8797 11.5109C82.9745 10.4866 83.3136 9.63813 83.8886 8.95197L83.4471 8.58204C82.7879 9.36885 82.4103 10.3319 82.3062 11.4577L82.8797 11.5109ZM83.8857 8.95543C84.4917 8.25472 85.2399 7.72365 86.1347 7.36193L85.9189 6.82783C84.9425 7.22253 84.118 7.80631 83.45 8.57858L83.8857 8.95543ZM86.1396 7.35991C87.0382 6.97745 87.9951 6.78564 89.0128 6.78564V6.20964C87.9205 6.20964 86.8867 6.41599 85.914 6.82985L86.1396 7.35991ZM89.0128 6.78564C91.033 6.78564 92.4968 7.32852 93.4599 8.36575L93.8819 7.97378C92.7749 6.78146 91.1331 6.20964 89.0128 6.20964V6.78564ZM93.4636 8.36964C94.4566 9.40025 94.9655 10.7861 94.9655 12.5592H95.5415C95.5415 10.6695 94.9953 9.12909 93.8783 7.96989L93.4636 8.36964ZM94.9655 12.5592V21.6665H95.5415V12.5592H94.9655ZM95.2535 21.3785H93.014V21.9545H95.2535V21.3785ZM93.3016 21.6503L93.1523 18.9928L92.5771 19.0251L92.7265 21.6826L93.3016 21.6503ZM92.6071 18.8802C92.2112 19.6719 91.6256 20.354 90.8434 20.9264L91.1835 21.3913C92.0335 20.7692 92.6821 20.0181 93.1223 19.1377L92.6071 18.8802ZM90.8444 20.9257C90.1127 21.4561 89.1039 21.7367 87.7886 21.7367V22.3127C89.1806 22.3127 90.3215 22.0161 91.1825 21.392L90.8444 20.9257ZM88.1766 20.1928C89.1848 20.1928 90.0629 19.9292 90.7959 19.3902L90.4546 18.9261C89.8339 19.3826 89.0797 19.6168 88.1766 19.6168V20.1928ZM90.7925 19.3926C91.5317 18.8646 92.0916 18.1773 92.4704 17.3355L91.9451 17.0992C91.6073 17.8499 91.1122 18.4564 90.4577 18.9238L90.7925 19.3926ZM92.4704 17.3355C92.8456 16.502 93.0333 15.6257 93.0333 14.7091H92.4573C92.4573 15.5444 92.2867 16.3402 91.9451 17.0992L92.4704 17.3355ZM93.0333 14.7091V14.6793H92.4573V14.7091H93.0333ZM92.7453 14.3913H88.9531V14.9673H92.7453V14.3913ZM88.9531 14.3913C87.462 14.3913 86.33 14.6501 85.6327 15.235L86.0028 15.6763C86.5398 15.2259 87.498 14.9673 88.9531 14.9673V14.3913ZM85.6335 15.2344C84.9726 15.7851 84.634 16.4921 84.634 17.3368H85.21C85.21 16.6685 85.4686 16.1216 86.0021 15.6769L85.6335 15.2344ZM84.634 17.3368C84.634 18.1917 84.9453 18.9006 85.5707 19.4366L85.9455 18.9993C85.4561 18.5797 85.21 18.0346 85.21 17.3368H84.634ZM85.579 19.4435C86.2244 19.9554 87.1024 20.1928 88.1766 20.1928V19.6168C87.1807 19.6168 86.4463 19.3962 85.937 18.9922L85.579 19.4435ZM99.0162 21.6665H98.7282V21.9545H99.0162V21.6665ZM99.0162 6.85591V6.56791H98.7282V6.85591H99.0162ZM101.286 6.85591L101.573 6.83978L101.558 6.56791H101.286V6.85591ZM101.435 9.51343L101.147 9.5297L101.207 10.5929L101.691 9.64447L101.435 9.51343ZM110.721 8.11015L110.514 8.30988L110.516 8.31175L110.518 8.31377L110.721 8.11015ZM112.304 21.6665V21.9545H112.592V21.6665H112.304ZM109.796 21.6665H109.508V21.9545H109.796V21.6665ZM102.779 10.051L102.566 9.85658L102.566 9.85672L102.779 10.051ZM101.525 21.6665V21.9545H101.813V21.6665H101.525ZM99.3042 21.6665V6.85591H98.7282V21.6665H99.3042ZM99.0162 7.14391H101.286V6.56791H99.0162V7.14391ZM100.998 6.87218L101.147 9.5297L101.722 9.4973L101.573 6.83978L100.998 6.87218ZM101.691 9.64447C102.145 8.75657 102.794 8.06033 103.643 7.55085L103.347 7.05693C102.405 7.62228 101.681 8.39916 101.178 9.38253L101.691 9.64447ZM103.643 7.55085C104.491 7.04253 105.454 6.78564 106.541 6.78564V6.20964C105.359 6.20964 104.292 6.49029 103.347 7.05693L103.643 7.55085ZM106.541 6.78564C108.229 6.78564 109.542 7.30116 110.514 8.30988L110.929 7.91028C109.83 6.76922 108.356 6.20964 106.541 6.20964V6.78564ZM110.518 8.31377C111.497 9.29354 112.016 10.8374 112.016 13.0072H112.592C112.592 10.7576 112.055 9.03679 110.925 7.90639L110.518 8.31377ZM112.016 13.0072V21.6665H112.592V13.0072H112.016ZM112.304 21.3785H109.796V21.9545H112.304V21.3785ZM110.084 21.6665V13.2759H109.508V21.6665H110.084ZM110.084 13.2759C110.084 11.7006 109.76 10.4657 109.062 9.62129C108.356 8.76622 107.308 8.35956 105.974 8.35956V8.93556C107.187 8.93556 108.05 9.30031 108.618 9.98806C109.195 10.6863 109.508 11.7654 109.508 13.2759H110.084ZM105.974 8.35956C104.619 8.35956 103.477 8.86097 102.566 9.85658L102.991 10.2454C103.792 9.36972 104.78 8.93556 105.974 8.93556V8.35956ZM102.566 9.85672C101.666 10.8428 101.237 12.2362 101.237 13.9924H101.813C101.813 12.3249 102.22 11.0905 102.991 10.2451L102.566 9.85672ZM101.237 13.9924V21.6665H101.813V13.9924H101.237ZM101.525 21.3785H99.0162V21.9545H101.525V21.3785ZM117.597 8.97602H117.885V8.68802H117.597V8.97602ZM115.029 8.97602H114.741V9.26402H115.029V8.97602ZM115.029 6.85591V6.56791H114.741V6.85591H115.029ZM117.597 6.85591V7.14391H117.86L117.884 6.88255L117.597 6.85591ZM117.925 3.30271V3.01471H117.663L117.639 3.27621L117.925 3.30271ZM120.105 3.30271H120.393V3.01471H120.105V3.30271ZM120.105 6.85591H119.817V7.14391H120.105V6.85591ZM124.465 6.85591H124.753V6.56791H124.465V6.85591ZM124.465 8.97602V9.26402H124.753V8.97602H124.465ZM120.105 8.97602V8.68802H119.817V8.97602H120.105ZM120.673 19.0387L120.481 19.2534L120.484 19.2563L120.487 19.2591L120.673 19.0387ZM124.226 19.5165H124.514V19.2285H124.226V19.5165ZM124.226 21.6665V21.9545H124.514V21.6665H124.226ZM121.957 21.3785C120.648 21.3785 119.657 21.0614 118.948 20.4612L118.576 20.901C119.419 21.6146 120.558 21.9545 121.957 21.9545V21.3785ZM118.948 20.4612C118.269 19.887 117.885 18.8109 117.885 17.1277H117.309C117.309 18.8685 117.701 20.1614 118.576 20.901L118.948 20.4612ZM117.885 17.1277V8.97602H117.309V17.1277H117.885ZM117.597 8.68802H115.029V9.26402H117.597V8.68802ZM115.317 8.97602V6.85591H114.741V8.97602H115.317ZM115.029 7.14391H117.597V6.56791H115.029V7.14391ZM117.884 6.88255L118.212 3.32921L117.639 3.27621L117.31 6.82941L117.884 6.88255ZM117.925 3.59071H120.105V3.01471H117.925V3.59071ZM119.817 3.30271V6.85591H120.393V3.30271H119.817ZM120.105 7.14391H124.465V6.56791H120.105V7.14391ZM124.177 6.85591V8.97602H124.753V6.85591H124.177ZM124.465 8.68802H120.105V9.26402H124.465V8.68802ZM119.817 8.97602V17.1277H120.393V8.97602H119.817ZM119.817 17.1277C119.817 18.0819 120.006 18.8289 120.481 19.2534L120.865 18.8242C120.583 18.5718 120.393 18.0449 120.393 17.1277H119.817ZM120.487 19.2591C120.948 19.6469 121.704 19.8045 122.673 19.8045V19.2285C121.731 19.2285 121.154 19.0677 120.858 18.8186L120.487 19.2591ZM122.673 19.8045H124.226V19.2285H122.673V19.8045ZM123.938 19.5165V21.6665H124.514V19.5165H123.938ZM124.226 21.3785H121.957V21.9545H124.226V21.3785ZM137.535 12.7383V13.0263H137.823V12.7383H137.535ZM136.52 9.63295L136.316 9.83657L136.318 9.83815L136.319 9.83959L136.52 9.63295ZM131.264 9.36425L131.427 9.6017L131.429 9.6007L131.264 9.36425ZM129.951 11.4842V11.7722H130.189L130.233 11.5384L129.951 11.4842ZM127.383 11.4842L127.096 11.4577L127.067 11.7722H127.383V11.4842ZM128.458 8.76693L128.24 8.57858L128.238 8.58031L128.237 8.58204L128.458 8.76693ZM130.817 7.09481L130.924 7.36193L130.927 7.36092L130.929 7.35991L130.817 7.09481ZM138.461 8.16976L138.25 8.36575L138.251 8.36777L138.253 8.36964L138.461 8.16976ZM140.043 21.6665V21.9545H140.331V21.6665H140.043ZM137.804 21.6665L137.516 21.6826L137.531 21.9545H137.804V21.6665ZM137.654 19.0089L137.942 18.9928L137.881 17.9114L137.397 18.8802L137.654 19.0089ZM135.803 21.1589L135.972 21.392L135.973 21.3913L135.803 21.1589ZM135.415 19.1583L135.248 18.9238L135.246 18.925L135.244 18.9261L135.415 19.1583ZM137.535 14.6793H137.823V14.3913H137.535V14.6793ZM130.608 15.4556L130.792 15.6769L130.793 15.6763L130.608 15.4556ZM130.548 19.2179L130.36 19.4366L130.365 19.4402L130.369 19.4435L130.548 19.2179ZM132.578 21.7367C131.375 21.7367 130.398 21.5327 129.634 21.1414L129.371 21.6541C130.24 22.0989 131.314 22.3127 132.578 22.3127V21.7367ZM129.634 21.1414C128.86 20.7451 128.298 20.2242 127.931 19.5826L127.431 19.8685C127.861 20.6204 128.513 21.2143 129.371 21.6541L129.634 21.1414ZM127.931 19.5826C127.558 18.9302 127.372 18.2231 127.372 17.4562H126.796C126.796 18.3216 127.008 19.1274 127.431 19.8685L127.931 19.5826ZM127.372 17.4562C127.372 16.0291 127.91 14.9556 128.982 14.1977L128.65 13.7274C127.413 14.6018 126.796 15.8575 126.796 17.4562H127.372ZM128.982 14.1977C130.072 13.4275 131.579 13.0263 133.534 13.0263V12.4503C131.507 12.4503 129.869 12.8655 128.65 13.7274L128.982 14.1977ZM133.534 13.0263H137.535V12.4503H133.534V13.0263ZM137.823 12.7383V12.5592H137.247V12.7383H137.823ZM137.823 12.5592C137.823 11.2171 137.471 10.1551 136.72 9.42631L136.319 9.83959C136.922 10.4245 137.247 11.3134 137.247 12.5592H137.823ZM136.724 9.42933C135.983 8.6886 134.998 8.32975 133.803 8.32975V8.90575C134.876 8.90575 135.703 9.2237 136.316 9.83657L136.724 9.42933ZM133.803 8.32975C132.776 8.32975 131.871 8.59255 131.1 9.12765L131.429 9.6007C132.092 9.14047 132.879 8.90575 133.803 8.90575V8.32975ZM131.102 9.12665C130.334 9.65297 129.859 10.4303 129.668 11.4301L130.233 11.5384C130.4 10.667 130.801 10.031 131.427 9.6017L131.102 9.12665ZM129.951 11.1962H127.383V11.7722H129.951V11.1962ZM127.67 11.5109C127.764 10.4866 128.103 9.63813 128.678 8.95197L128.237 8.58204C127.578 9.36885 127.2 10.3319 127.096 11.4577L127.67 11.5109ZM128.675 8.95543C129.281 8.25472 130.03 7.72365 130.924 7.36193L130.709 6.82783C129.732 7.22253 128.908 7.80631 128.24 8.57858L128.675 8.95543ZM130.929 7.35991C131.828 6.97745 132.785 6.78564 133.803 6.78564V6.20964C132.71 6.20964 131.676 6.41599 130.704 6.82985L130.929 7.35991ZM133.803 6.78564C135.823 6.78564 137.287 7.32852 138.25 8.36575L138.672 7.97378C137.565 6.78146 135.923 6.20964 133.803 6.20964V6.78564ZM138.253 8.36964C139.246 9.40025 139.755 10.7861 139.755 12.5592H140.331C140.331 10.6695 139.785 9.12909 138.668 7.96989L138.253 8.36964ZM139.755 12.5592V21.6665H140.331V12.5592H139.755ZM140.043 21.3785H137.804V21.9545H140.043V21.3785ZM138.091 21.6503L137.942 18.9928L137.367 19.0251L137.516 21.6826L138.091 21.6503ZM137.397 18.8802C137.001 19.6719 136.415 20.354 135.633 20.9264L135.973 21.3913C136.823 20.7692 137.472 20.0181 137.912 19.1377L137.397 18.8802ZM135.634 20.9257C134.902 21.4561 133.894 21.7367 132.578 21.7367V22.3127C133.97 22.3127 135.111 22.0161 135.972 21.392L135.634 20.9257ZM132.966 20.1928C133.975 20.1928 134.853 19.9292 135.586 19.3902L135.244 18.9261C134.624 19.3826 133.869 19.6168 132.966 19.6168V20.1928ZM135.582 19.3926C136.321 18.8646 136.881 18.1773 137.26 17.3355L136.735 17.0992C136.397 17.8499 135.902 18.4564 135.248 18.9238L135.582 19.3926ZM137.26 17.3355C137.635 16.502 137.823 15.6257 137.823 14.7091H137.247C137.247 15.5444 137.076 16.3402 136.735 17.0992L137.26 17.3355ZM137.823 14.7091V14.6793H137.247V14.7091H137.823ZM137.535 14.3913H133.743V14.9673H137.535V14.3913ZM133.743 14.3913C132.252 14.3913 131.12 14.6501 130.422 15.235L130.793 15.6763C131.33 15.2259 132.288 14.9673 133.743 14.9673V14.3913ZM130.423 15.2344C129.762 15.7851 129.424 16.4921 129.424 17.3368H130C130 16.6685 130.258 16.1216 130.792 15.6769L130.423 15.2344ZM129.424 17.3368C129.424 18.1917 129.735 18.9006 130.36 19.4366L130.735 18.9993C130.246 18.5797 130 18.0346 130 17.3368H129.424ZM130.369 19.4435C131.014 19.9554 131.892 20.1928 132.966 20.1928V19.6168C131.97 19.6168 131.236 19.3962 130.727 18.9922L130.369 19.4435ZM143.418 21.338L143.208 21.5354L143.214 21.5417L143.22 21.5477L143.418 21.338ZM145.866 18.9194L145.657 19.1168L145.663 19.1231L145.669 19.129L145.866 18.9194ZM144.672 21.5278C144.242 21.5278 143.896 21.3927 143.615 21.1283L143.22 21.5477C143.616 21.9203 144.107 22.1038 144.672 22.1038V21.5278ZM143.628 21.1406C143.361 20.8573 143.228 20.5204 143.228 20.1137H142.652C142.652 20.6626 142.838 21.1419 143.208 21.5354L143.628 21.1406ZM143.228 20.1137C143.228 19.7072 143.361 19.3839 143.622 19.123L143.214 18.7157C142.838 19.0917 142.652 19.5648 142.652 20.1137H143.228ZM143.622 19.123C143.904 18.8409 144.247 18.6998 144.672 18.6998V18.1238C144.101 18.1238 143.609 18.3209 143.214 18.7157L143.622 19.123ZM144.672 18.6998C145.073 18.6998 145.394 18.838 145.657 19.1168L146.076 18.7219C145.701 18.3239 145.227 18.1238 144.672 18.1238V18.6998ZM145.669 19.129C145.948 19.3914 146.086 19.7129 146.086 20.1137H146.662C146.662 19.5592 146.462 19.0842 146.064 18.7096L145.669 19.129ZM146.086 20.1137C146.086 20.515 145.947 20.8498 145.663 21.1344L146.07 21.5416C146.462 21.1494 146.662 20.6681 146.662 20.1137H146.086ZM145.663 21.1344C145.402 21.3953 145.079 21.5278 144.672 21.5278V22.1038C145.221 22.1038 145.694 21.9177 146.07 21.5416L145.663 21.1344Z" fill="black"/>
</g>
<path d="M147.829 10.2329V3.9523H145.748V3.26556H150.745V3.9523H148.665V10.2329H147.829ZM151.766 10.2329V3.26556H152.741L155.25 8.12283L157.738 3.26556H158.723V10.2329H157.887V4.75856L155.558 9.23753H154.931L152.602 4.76849V10.2329H151.766Z" fill="black"/>
<mask id="mask1_76_7526" style="mask-type:luminance" maskUnits="userSpaceOnUse" x="145" y="2" width="15" height="9">
<path d="M159.082 2.88885H145.402V10.5209H159.082V2.88885Z" fill="white"/>
<path d="M147.829 10.2329V3.9523H145.748V3.26556H150.745V3.9523H148.665V10.2329H147.829ZM151.766 10.2329V3.26556H152.741L155.25 8.12283L157.738 3.26556H158.723V10.2329H157.887V4.75856L155.558 9.23753H154.931L152.602 4.76849V10.2329H151.766Z" fill="black"/>
</mask>
<g mask="url(#mask1_76_7526)">
<path d="M147.829 10.2329H147.541V10.5209H147.829V10.2329ZM147.829 3.95234H148.117V3.66434H147.829V3.95234ZM145.748 3.95234H145.46V4.24034H145.748V3.95234ZM145.748 3.2656V2.9776H145.46V3.2656H145.748ZM150.745 3.2656H151.033V2.9776H150.745V3.2656ZM150.745 3.95234V4.24034H151.033V3.95234H150.745ZM148.665 3.95234V3.66434H148.377V3.95234H148.665ZM148.665 10.2329V10.5209H148.953V10.2329H148.665ZM148.117 10.2329V3.95234H147.541V10.2329H148.117ZM147.829 3.66434H145.748V4.24034H147.829V3.66434ZM146.036 3.95234V3.2656H145.46V3.95234H146.036ZM145.748 3.5536H150.745V2.9776H145.748V3.5536ZM150.457 3.2656V3.95234H151.033V3.2656H150.457ZM150.745 3.66434H148.665V4.24034H150.745V3.66434ZM148.377 3.95234V10.2329H148.953V3.95234H148.377ZM148.665 9.94489H147.829V10.5209H148.665V9.94489ZM151.766 10.2329H151.478V10.5209H151.766V10.2329ZM151.766 3.2656V2.9776H151.478V3.2656H151.766ZM152.741 3.2656L152.997 3.13341L152.917 2.9776H152.741V3.2656ZM155.25 8.12286L154.994 8.25491L155.251 8.75243L155.506 8.25405L155.25 8.12286ZM157.738 3.2656V2.9776H157.562L157.482 3.13427L157.738 3.2656ZM158.723 3.2656H159.011V2.9776H158.723V3.2656ZM158.723 10.2329V10.5209H159.011V10.2329H158.723ZM157.887 10.2329H157.599V10.5209H157.887V10.2329ZM157.887 4.75859H158.175L157.632 4.62568L157.887 4.75859ZM155.558 9.23757V9.52557H155.733L155.814 9.37048L155.558 9.23757ZM154.931 9.23757L154.676 9.37063L154.756 9.52557H154.931V9.23757ZM152.602 4.76853L152.857 4.63547L152.314 4.76853H152.602ZM152.602 10.2329V10.5209H152.89V10.2329H152.602ZM152.054 10.2329V3.2656H151.478V10.2329H152.054ZM151.766 3.5536H152.741V2.9776H151.766V3.5536ZM152.485 3.39779L154.994 8.25491L155.505 7.99067L152.997 3.13341L152.485 3.39779ZM155.506 8.25405L157.994 3.39693L157.482 3.13427L154.993 7.99154L155.506 8.25405ZM157.738 3.5536H158.723V2.9776H157.738V3.5536ZM158.435 3.2656V10.2329H159.011V3.2656H158.435ZM158.723 9.94489H157.887V10.5209H158.723V9.94489ZM158.175 10.2329V4.75859H157.599V10.2329H158.175ZM157.632 4.62568L155.303 9.10466L155.814 9.37048L158.143 4.8915L157.632 4.62568ZM155.558 8.94957H154.931V9.52557H155.558V8.94957ZM155.186 9.10451L152.857 4.63547L152.347 4.90158L154.676 9.37063L155.186 9.10451ZM152.314 4.76853V10.2329H152.89V4.76853H152.314ZM152.602 9.94489H151.766V10.5209H152.602V9.94489Z" fill="black"/>
</g>
<path d="M8.12999 22.134C6.77635 22.134 5.71135 21.8055 4.93499 21.1486C4.15864 20.4917 3.77046 19.3073 3.77046 17.5952V9.44354H1.20251V7.32343H3.77046L4.09891 3.77017H6.27868V7.32343H10.6382V9.44354H6.27868V17.5952C6.27868 18.5309 6.4678 19.1679 6.84603 19.5063C7.22425 19.8248 7.89112 19.9841 8.84664 19.9841H10.3993V22.134H8.12999ZM13.8248 22.134V0.634888H16.3331V9.86157C16.8307 8.94588 17.5374 8.23912 18.453 7.74146C19.3687 7.22392 20.3641 6.96516 21.439 6.96516C23.151 6.96516 24.5247 7.50271 25.5597 8.57767C26.595 9.63261 27.1125 11.265 27.1125 13.4747V22.134H24.6341V13.7434C24.6341 10.6579 23.3899 9.11508 20.9016 9.11508C19.6076 9.11508 18.5227 9.58293 17.6469 10.5185C16.771 11.4342 16.3331 12.7481 16.3331 14.4599V22.134H13.8248ZM37.5714 22.4922C36.158 22.4922 34.9039 22.1737 33.8091 21.5368C32.7141 20.8799 31.8482 19.9741 31.2112 18.8195C30.5941 17.6649 30.2855 16.3014 30.2855 14.7288C30.2855 13.176 30.5941 11.8224 31.2112 10.6678C31.8283 9.49336 32.6843 8.5876 33.7791 7.95055C34.894 7.29362 36.1779 6.96516 37.6311 6.96516C39.0643 6.96516 40.2986 7.29362 41.3336 7.95055C42.3887 8.5876 43.195 9.4336 43.7523 10.4887C44.3097 11.5436 44.5883 12.6784 44.5883 13.8927C44.5883 14.1116 44.5784 14.3306 44.5585 14.5496C44.5585 14.7685 44.5585 15.0173 44.5585 15.2961H32.7639C32.8237 16.4307 33.0824 17.3764 33.5402 18.1328C34.018 18.8693 34.6052 19.4266 35.3021 19.8049C36.0186 20.1831 36.775 20.3723 37.5714 20.3723C38.6064 20.3723 39.4724 20.1334 40.1691 19.6556C40.8659 19.1778 41.3735 18.5309 41.6921 17.7148H44.1703C43.7723 19.0882 43.0058 20.2329 41.8712 21.1486C40.7563 22.0444 39.3231 22.4922 37.5714 22.4922ZM37.5714 9.08527C36.3769 9.08527 35.312 9.45348 34.3763 10.19C33.4606 10.9067 32.9331 11.9617 32.7937 13.3552H42.1101C42.0503 12.0214 41.5924 10.9763 40.7365 10.2198C39.8805 9.46341 38.8254 9.08527 37.5714 9.08527Z" fill="black"/>
<mask id="mask2_76_7526" style="mask-type:luminance" maskUnits="userSpaceOnUse" x="0" y="0" width="45" height="23">
<path d="M44.9949 0.245972H0.786926V22.854H44.9949V0.245972Z" fill="white"/>
<path d="M8.12999 22.134C6.77635 22.134 5.71135 21.8055 4.93499 21.1486C4.15864 20.4917 3.77046 19.3073 3.77046 17.5952V9.44354H1.20251V7.32343H3.77046L4.09891 3.77017H6.27868V7.32343H10.6382V9.44354H6.27868V17.5952C6.27868 18.5309 6.4678 19.1679 6.84603 19.5063C7.22425 19.8248 7.89112 19.9841 8.84664 19.9841H10.3993V22.134H8.12999ZM13.8248 22.134V0.634888H16.3331V9.86157C16.8307 8.94588 17.5374 8.23912 18.453 7.74146C19.3687 7.22392 20.3641 6.96516 21.439 6.96516C23.151 6.96516 24.5247 7.50271 25.5597 8.57767C26.595 9.63261 27.1125 11.265 27.1125 13.4747V22.134H24.6341V13.7434C24.6341 10.6579 23.3899 9.11508 20.9016 9.11508C19.6076 9.11508 18.5227 9.58293 17.6469 10.5185C16.771 11.4342 16.3331 12.7481 16.3331 14.4599V22.134H13.8248ZM37.5714 22.4922C36.158 22.4922 34.9039 22.1737 33.8091 21.5368C32.7141 20.8799 31.8482 19.9741 31.2112 18.8195C30.5941 17.6649 30.2855 16.3014 30.2855 14.7288C30.2855 13.176 30.5941 11.8224 31.2112 10.6678C31.8283 9.49336 32.6843 8.5876 33.7791 7.95055C34.894 7.29362 36.1779 6.96516 37.6311 6.96516C39.0643 6.96516 40.2986 7.29362 41.3336 7.95055C42.3887 8.5876 43.195 9.4336 43.7523 10.4887C44.3097 11.5436 44.5883 12.6784 44.5883 13.8927C44.5883 14.1116 44.5784 14.3306 44.5585 14.5496C44.5585 14.7685 44.5585 15.0173 44.5585 15.2961H32.7639C32.8237 16.4307 33.0824 17.3764 33.5402 18.1328C34.018 18.8693 34.6052 19.4266 35.3021 19.8049C36.0186 20.1831 36.775 20.3723 37.5714 20.3723C38.6064 20.3723 39.4724 20.1334 40.1691 19.6556C40.8659 19.1778 41.3735 18.5309 41.6921 17.7148H44.1703C43.7723 19.0882 43.0058 20.2329 41.8712 21.1486C40.7563 22.0444 39.3231 22.4922 37.5714 22.4922ZM37.5714 9.08527C36.3769 9.08527 35.312 9.45348 34.3763 10.19C33.4606 10.9067 32.9331 11.9617 32.7937 13.3552H42.1101C42.0503 12.0214 41.5924 10.9763 40.7365 10.2198C39.8805 9.46341 38.8254 9.08527 37.5714 9.08527Z" fill="black"/>
</mask>
<g mask="url(#mask2_76_7526)">
<path d="M3.7705 9.44358H4.0585V9.15558H3.7705V9.44358ZM1.20255 9.44358H0.914551V9.73158H1.20255V9.44358ZM1.20255 7.32347V7.03547H0.914551V7.32347H1.20255ZM3.7705 7.32347V7.61147H4.0331L4.05728 7.35011L3.7705 7.32347ZM4.09895 3.77021V3.48221H3.83635L3.81217 3.7437L4.09895 3.77021ZM6.27872 3.77021H6.56672V3.48221H6.27872V3.77021ZM6.27872 7.32347H5.99072V7.61147H6.27872V7.32347ZM10.6383 7.32347H10.9263V7.03547H10.6383V7.32347ZM10.6383 9.44358V9.73158H10.9263V9.44358H10.6383ZM6.27872 9.44358V9.15558H5.99072V9.44358H6.27872ZM6.84607 19.5063L6.65403 19.721L6.65724 19.7239L6.66055 19.7266L6.84607 19.5063ZM10.3994 19.9841H10.6874V19.6961H10.3994V19.9841ZM10.3994 22.134V22.422H10.6874V22.134H10.3994ZM8.13003 21.846C6.82176 21.846 5.83035 21.5289 5.12106 20.9287L4.74899 21.3685C5.59242 22.0822 6.73102 22.422 8.13003 22.422V21.846ZM5.12106 20.9287C4.44248 20.3546 4.0585 19.2785 4.0585 17.5953H3.4825C3.4825 19.3361 3.87489 20.6288 4.74899 21.3685L5.12106 20.9287ZM4.0585 17.5953V9.44358H3.4825V17.5953H4.0585ZM3.7705 9.15558H1.20255V9.73158H3.7705V9.15558ZM1.49055 9.44358V7.32347H0.914551V9.44358H1.49055ZM1.20255 7.61147H3.7705V7.03547H1.20255V7.61147ZM4.05728 7.35011L4.38574 3.79672L3.81217 3.7437L3.48372 7.29697L4.05728 7.35011ZM4.09895 4.05821H6.27872V3.48221H4.09895V4.05821ZM5.99072 3.77021V7.32347H6.56672V3.77021H5.99072ZM6.27872 7.61147H10.6383V7.03547H6.27872V7.61147ZM10.3503 7.32347V9.44358H10.9263V7.32347H10.3503ZM10.6383 9.15558H6.27872V9.73158H10.6383V9.15558ZM5.99072 9.44358V17.5953H6.56672V9.44358H5.99072ZM5.99072 17.5953C5.99072 18.5494 6.17961 19.2965 6.65403 19.721L7.0381 19.2917C6.75607 19.0393 6.56672 18.5124 6.56672 17.5953H5.99072ZM6.66055 19.7266C7.12103 20.1144 7.87786 20.2721 8.84667 20.2721V19.6961C7.90445 19.6961 7.32754 19.5352 7.03157 19.286L6.66055 19.7266ZM8.84667 20.2721H10.3994V19.6961H8.84667V20.2721ZM10.1114 19.9841V22.134H10.6874V19.9841H10.1114ZM10.3994 21.846H8.13003V22.422H10.3994V21.846ZM13.8249 22.134H13.5369V22.422H13.8249V22.134ZM13.8249 0.634924V0.346924H13.5369V0.634924H13.8249ZM16.3331 0.634924H16.6211V0.346924H16.3331V0.634924ZM16.3331 9.86161H16.0451L16.5861 9.99913L16.3331 9.86161ZM18.4531 7.7415L18.5906 7.99465L18.5928 7.9935L18.5949 7.99235L18.4531 7.7415ZM25.5598 8.57771L25.3523 8.77743L25.3533 8.77844L25.3541 8.77931L25.5598 8.57771ZM27.1125 22.134V22.422H27.4005V22.134H27.1125ZM24.6341 22.134H24.3461V22.422H24.6341V22.134ZM17.647 10.5185L17.8551 10.7175L17.8561 10.7165L17.8572 10.7154L17.647 10.5185ZM16.3331 22.134V22.422H16.6211V22.134H16.3331ZM14.1129 22.134V0.634924H13.5369V22.134H14.1129ZM13.8249 0.922924H16.3331V0.346924H13.8249V0.922924ZM16.0451 0.634924V9.86161H16.6211V0.634924H16.0451ZM16.5861 9.99913C17.0573 9.13225 17.7239 8.46567 18.5906 7.99465L18.3156 7.48849C17.3511 8.01279 16.6043 8.75958 16.0801 9.72409L16.5861 9.99913ZM18.5949 7.99235C19.4663 7.49972 20.4126 7.25319 21.4391 7.25319V6.67721C20.3156 6.67721 19.2713 6.94834 18.3114 7.49079L18.5949 7.99235ZM21.4391 7.25319C23.0854 7.25319 24.3797 7.76727 25.3523 8.77743L25.7673 8.37783C24.6697 7.23807 23.2167 6.67721 21.4391 6.67721V7.25319ZM25.3541 8.77931C26.3153 9.75894 26.8245 11.3036 26.8245 13.4747H27.4005C27.4005 11.2264 26.8745 9.50636 25.7654 8.37596L25.3541 8.77931ZM26.8245 13.4747V22.134H27.4005V13.4747H26.8245ZM27.1125 21.846H24.6341V22.422H27.1125V21.846ZM24.9221 22.134V13.7434H24.3461V22.134H24.9221ZM24.9221 13.7434C24.9221 12.1695 24.6061 10.9357 23.9252 10.0914C23.2347 9.23535 22.2086 8.82711 20.9017 8.82711V9.40311C22.083 9.40311 22.923 9.76628 23.4768 10.453C24.0401 11.1516 24.3461 12.2318 24.3461 13.7434H24.9221ZM20.9017 8.82711C19.5289 8.82711 18.3675 9.32723 17.4367 10.3217L17.8572 10.7154C18.678 9.83857 19.6866 9.40311 20.9017 9.40311V8.82711ZM17.4387 10.3194C16.4958 11.3054 16.0451 12.7004 16.0451 14.46H16.6211C16.6211 12.7956 17.0462 11.5631 17.8551 10.7175L17.4387 10.3194ZM16.0451 14.46V22.134H16.6211V14.46H16.0451ZM16.3331 21.846H13.8249V22.422H16.3331V21.846ZM33.8091 21.5368L33.6609 21.7838L33.6625 21.7848L33.6642 21.7857L33.8091 21.5368ZM31.2112 18.8196L30.9572 18.9554L30.9582 18.9571L30.9591 18.9587L31.2112 18.8196ZM31.2112 10.6679L31.4652 10.8037L31.4656 10.8026L31.4662 10.8018L31.2112 10.6679ZM33.7791 7.95058L33.924 8.19956L33.9255 8.1987L33.7791 7.95058ZM41.3337 7.95058L41.1795 8.1938L41.182 8.19553L41.1849 8.19711L41.3337 7.95058ZM44.5586 14.5497L44.2717 14.5235L44.2706 14.5366V14.5497H44.5586ZM44.5586 15.2962V15.5842H44.8466V15.2962H44.5586ZM32.7639 15.2962V15.0082H32.4604L32.4764 15.3113L32.7639 15.2962ZM33.5403 18.1328L33.2939 18.2819L33.2962 18.2858L33.2986 18.2895L33.5403 18.1328ZM35.3021 19.805L35.1646 20.0581L35.1662 20.0588L35.1676 20.0597L35.3021 19.805ZM41.6921 17.7148V17.4268H41.4952L41.4237 17.6101L41.6921 17.7148ZM44.1703 17.7148L44.447 17.795L44.5537 17.4268H44.1703V17.7148ZM41.8712 21.1486L42.0517 21.3731L42.0521 21.3728L41.8712 21.1486ZM34.3763 10.1901L34.5539 10.4169L34.5544 10.4163L34.3763 10.1901ZM32.7938 13.3552L32.5072 13.3265L32.4755 13.6432H32.7938V13.3552ZM42.1101 13.3552V13.6432H42.4112L42.3978 13.3424L42.1101 13.3552ZM37.5714 22.2043C36.2028 22.2043 34.9998 21.8964 33.9538 21.2879L33.6642 21.7857C34.808 22.4512 36.1131 22.7803 37.5714 22.7803V22.2043ZM33.9573 21.2899C32.9074 20.66 32.0766 19.792 31.4633 18.6805L30.9591 18.9587C31.6197 20.1562 32.521 21.0998 33.6609 21.7838L33.9573 21.2899ZM31.4652 18.6838C30.8745 17.5786 30.5736 16.2636 30.5736 14.7288H29.9976C29.9976 16.3393 30.3138 17.7514 30.9572 18.9554L31.4652 18.6838ZM30.5736 14.7288C30.5736 13.2147 30.8742 11.9093 31.4652 10.8037L30.9572 10.5321C30.3139 11.7355 29.9976 13.1375 29.9976 14.7288H30.5736ZM31.4662 10.8018C32.0594 9.67283 32.8781 8.80796 33.924 8.19956L33.6343 7.70161C32.4905 8.36718 31.5973 9.31383 30.9563 10.5338L31.4662 10.8018ZM33.9255 8.1987C34.9906 7.571 36.2228 7.25319 37.6311 7.25319V6.67721C36.133 6.67721 34.7972 7.01631 33.633 7.70247L33.9255 8.1987ZM37.6311 7.25319C39.0192 7.25319 40.1978 7.57071 41.1795 8.1938L41.488 7.70737C40.3994 7.0166 39.1096 6.67721 37.6311 6.67721V7.25319ZM41.1849 8.19711C42.1967 8.80796 42.9656 9.61595 43.4977 10.6232L44.007 10.3541C43.4244 9.25134 42.5809 8.36718 41.4826 7.70406L41.1849 8.19711ZM43.4977 10.6232C44.0328 11.636 44.3004 12.7245 44.3004 13.8927H44.8764C44.8764 12.6323 44.5866 11.4514 44.007 10.3541L43.4977 10.6232ZM44.3004 13.8927C44.3004 14.103 44.2909 14.3132 44.2717 14.5235L44.8454 14.5757C44.8661 14.3481 44.8764 14.1204 44.8764 13.8927H44.3004ZM44.2706 14.5497C44.2706 14.5501 44.2706 14.5504 44.2706 14.5508C44.2706 14.5513 44.2706 14.5517 44.2706 14.5521C44.2706 14.5526 44.2706 14.553 44.2706 14.5534C44.2706 14.5539 44.2706 14.5543 44.2706 14.5547C44.2706 14.5551 44.2706 14.5556 44.2706 14.556C44.2706 14.5564 44.2706 14.5569 44.2706 14.5573C44.2706 14.5577 44.2706 14.5582 44.2706 14.5586C44.2706 14.559 44.2706 14.5595 44.2706 14.5599C44.2706 14.5603 44.2706 14.5608 44.2706 14.5612C44.2706 14.5616 44.2706 14.5621 44.2706 14.5625C44.2706 14.5629 44.2706 14.5634 44.2706 14.5638C44.2706 14.5642 44.2706 14.5646 44.2706 14.5651C44.2706 14.5655 44.2706 14.5659 44.2706 14.5664C44.2706 14.5668 44.2706 14.5672 44.2706 14.5677C44.2706 14.5681 44.2706 14.5685 44.2706 14.569C44.2706 14.5694 44.2706 14.5698 44.2706 14.5703C44.2706 14.5707 44.2706 14.5711 44.2706 14.5716C44.2706 14.572 44.2706 14.5724 44.2706 14.5729C44.2706 14.5733 44.2706 14.5737 44.2706 14.5742C44.2706 14.5746 44.2706 14.575 44.2706 14.5754C44.2706 14.5759 44.2706 14.5763 44.2706 14.5767C44.2706 14.5772 44.2706 14.5776 44.2706 14.578C44.2706 14.5785 44.2706 14.5789 44.2706 14.5793C44.2706 14.5798 44.2706 14.5802 44.2706 14.5806C44.2706 14.5811 44.2706 14.5815 44.2706 14.5819C44.2706 14.5824 44.2706 14.5828 44.2706 14.5832C44.2706 14.5837 44.2706 14.5841 44.2706 14.5845C44.2706 14.585 44.2706 14.5854 44.2706 14.5858C44.2706 14.5862 44.2706 14.5867 44.2706 14.5871C44.2706 14.5875 44.2706 14.588 44.2706 14.5884C44.2706 14.5888 44.2706 14.5893 44.2706 14.5897C44.2706 14.5901 44.2706 14.5906 44.2706 14.591C44.2706 14.5914 44.2706 14.5919 44.2706 14.5923C44.2706 14.5927 44.2706 14.5932 44.2706 14.5936C44.2706 14.594 44.2706 14.5945 44.2706 14.5949C44.2706 14.5953 44.2706 14.5958 44.2706 14.5962C44.2706 14.5966 44.2706 14.597 44.2706 14.5975C44.2706 14.5979 44.2706 14.5985 44.2706 14.5989C44.2706 14.5994 44.2706 14.5998 44.2706 14.6002C44.2706 14.6006 44.2706 14.6011 44.2706 14.6015C44.2706 14.6019 44.2706 14.6024 44.2706 14.6028C44.2706 14.6032 44.2706 14.6037 44.2706 14.6041C44.2706 14.6045 44.2706 14.605 44.2706 14.6054C44.2706 14.6058 44.2706 14.6063 44.2706 14.6067C44.2706 14.6071 44.2706 14.6076 44.2706 14.608C44.2706 14.6084 44.2706 14.6089 44.2706 14.6093C44.2706 14.6097 44.2706 14.6103 44.2706 14.6107C44.2706 14.6112 44.2706 14.6116 44.2706 14.612C44.2706 14.6125 44.2706 14.6129 44.2706 14.6133C44.2706 14.6138 44.2706 14.6142 44.2706 14.6146C44.2706 14.6151 44.2706 14.6155 44.2706 14.6159C44.2706 14.6163 44.2706 14.6168 44.2706 14.6172C44.2706 14.6176 44.2706 14.6181 44.2706 14.6185C44.2706 14.6189 44.2706 14.6195 44.2706 14.6199C44.2706 14.6204 44.2706 14.6208 44.2706 14.6212C44.2706 14.6217 44.2706 14.6221 44.2706 14.6225C44.2706 14.623 44.2706 14.6234 44.2706 14.6238C44.2706 14.6243 44.2706 14.6247 44.2706 14.6251C44.2706 14.6256 44.2706 14.626 44.2706 14.6264C44.2706 14.627 44.2706 14.6274 44.2706 14.6279C44.2706 14.6283 44.2706 14.6287 44.2706 14.6292C44.2706 14.6296 44.2706 14.63 44.2706 14.6305C44.2706 14.6309 44.2706 14.6313 44.2706 14.6318C44.2706 14.6322 44.2706 14.6326 44.2706 14.6332C44.2706 14.6336 44.2706 14.6341 44.2706 14.6345C44.2706 14.6349 44.2706 14.6354 44.2706 14.6358C44.2706 14.6362 44.2706 14.6366 44.2706 14.6371C44.2706 14.6375 44.2706 14.6379 44.2706 14.6384C44.2706 14.6388 44.2706 14.6394 44.2706 14.6398C44.2706 14.6402 44.2706 14.6407 44.2706 14.6411C44.2706 14.6415 44.2706 14.642 44.2706 14.6424C44.2706 14.6428 44.2706 14.6433 44.2706 14.6437C44.2706 14.6441 44.2706 14.6447 44.2706 14.6451C44.2706 14.6456 44.2706 14.646 44.2706 14.6464C44.2706 14.6469 44.2706 14.6473 44.2706 14.6477C44.2706 14.6482 44.2706 14.6486 44.2706 14.649C44.2706 14.6496 44.2706 14.65 44.2706 14.6505C44.2706 14.6509 44.2706 14.6513 44.2706 14.6518C44.2706 14.6522 44.2706 14.6526 44.2706 14.6531C44.2706 14.6535 44.2706 14.6539 44.2706 14.6545C44.2706 14.6549 44.2706 14.6554 44.2706 14.6558C44.2706 14.6562 44.2706 14.6567 44.2706 14.6571C44.2706 14.6575 44.2706 14.658 44.2706 14.6584C44.2706 14.659 44.2706 14.6594 44.2706 14.6598C44.2706 14.6603 44.2706 14.6607 44.2706 14.6611C44.2706 14.6616 44.2706 14.662 44.2706 14.6624C44.2706 14.6629 44.2706 14.6634 44.2706 14.6639C44.2706 14.6643 44.2706 14.6647 44.2706 14.6652C44.2706 14.6656 44.2706 14.666 44.2706 14.6665C44.2706 14.6669 44.2706 14.6675 44.2706 14.6679C44.2706 14.6683 44.2706 14.6688 44.2706 14.6692C44.2706 14.6696 44.2706 14.6701 44.2706 14.6705C44.2706 14.6709 44.2706 14.6715 44.2706 14.6719C44.2706 14.6724 44.2706 14.6728 44.2706 14.6732C44.2706 14.6737 44.2706 14.6741 44.2706 14.6745C44.2706 14.6751 44.2706 14.6755 44.2706 14.676C44.2706 14.6764 44.2706 14.6768 44.2706 14.6773C44.2706 14.6777 44.2706 14.6781 44.2706 14.6787C44.2706 14.6791 44.2706 14.6796 44.2706 14.68C44.2706 14.6804 44.2706 14.6809 44.2706 14.6813C44.2706 14.6817 44.2706 14.6823 44.2706 14.6827C44.2706 14.6832 44.2706 14.6836 44.2706 14.684C44.2706 14.6845 44.2706 14.6849 44.2706 14.6853C44.2706 14.6859 44.2706 14.6863 44.2706 14.6868C44.2706 14.6872 44.2706 14.6876 44.2706 14.6881C44.2706 14.6885 44.2706 14.6891 44.2706 14.6895C44.2706 14.6899 44.2706 14.6904 44.2706 14.6908C44.2706 14.6912 44.2706 14.6917 44.2706 14.6922C44.2706 14.6927 44.2706 14.6931 44.2706 14.6935C44.2706 14.694 44.2706 14.6944 44.2706 14.6948C44.2706 14.6954 44.2706 14.6958 44.2706 14.6963C44.2706 14.6967 44.2706 14.6971 44.2706 14.6976C44.2706 14.698 44.2706 14.6986 44.2706 14.699C44.2706 14.6994 44.2706 14.6999 44.2706 14.7003C44.2706 14.7007 44.2706 14.7012 44.2706 14.7017C44.2706 14.7022 44.2706 14.7026 44.2706 14.703C44.2706 14.7035 44.2706 14.7039 44.2706 14.7045C44.2706 14.7049 44.2706 14.7053 44.2706 14.7058C44.2706 14.7062 44.2706 14.7066 44.2706 14.7071C44.2706 14.7076 44.2706 14.7081 44.2706 14.7085C44.2706 14.7089 44.2706 14.7094 44.2706 14.7098C44.2706 14.7104 44.2706 14.7108 44.2706 14.7112C44.2706 14.7117 44.2706 14.7121 44.2706 14.7125C44.2706 14.7131 44.2706 14.7135 44.2706 14.714C44.2706 14.7144 44.2706 14.7148 44.2706 14.7153C44.2706 14.7158 44.2706 14.7163 44.2706 14.7167C44.2706 14.7171 44.2706 14.7176 44.2706 14.718C44.2706 14.7186 44.2706 14.719 44.2706 14.7194C44.2706 14.7199 44.2706 14.7203 44.2706 14.7207C44.2706 14.7213 44.2706 14.7218 44.2706 14.7222C44.2706 14.7226 44.2706 14.7231 44.2706 14.7235C44.2706 14.7241 44.2706 14.7245 44.2706 14.7249C44.2706 14.7254 44.2706 14.7258 44.2706 14.7264C44.2706 14.7268 44.2706 14.7272 44.2706 14.7277C44.2706 14.7281 44.2706 14.7285 44.2706 14.7291C44.2706 14.7295 44.2706 14.73 44.2706 14.7304C44.2706 14.7308 44.2706 14.7314 44.2706 14.7318C44.2706 14.7323 44.2706 14.7327 44.2706 14.7331C44.2706 14.7337 44.2706 14.7341 44.2706 14.7346C44.2706 14.735 44.2706 14.7354 44.2706 14.7359C44.2706 14.7364 44.2706 14.7369 44.2706 14.7373C44.2706 14.7377 44.2706 14.7382 44.2706 14.7387C44.2706 14.7392 44.2706 14.7396 44.2706 14.74C44.2706 14.7405 44.2706 14.741 44.2706 14.7415C44.2706 14.7419 44.2706 14.7423 44.2706 14.7428C44.2706 14.7434 44.2706 14.7438 44.2706 14.7442C44.2706 14.7446 44.2706 14.7451 44.2706 14.7457C44.2706 14.7461 44.2706 14.7465 44.2706 14.747C44.2706 14.7474 44.2706 14.748 44.2706 14.7484C44.2706 14.7488 44.2706 14.7493 44.2706 14.7497C44.2706 14.7503 44.2706 14.7507 44.2706 14.7511C44.2706 14.7516 44.2706 14.752 44.2706 14.7526C44.2706 14.753 44.2706 14.7534 44.2706 14.7539C44.2706 14.7544 44.2706 14.7549 44.2706 14.7553C44.2706 14.7557 44.2706 14.7562 44.2706 14.7567C44.2706 14.7572 44.2706 14.7576 44.2706 14.758C44.2706 14.7585 44.2706 14.7591 44.2706 14.7595C44.2706 14.7599 44.2706 14.7603 44.2706 14.7609C44.2706 14.7614 44.2706 14.7618 44.2706 14.7622C44.2706 14.7626 44.2706 14.7632 44.2706 14.7637C44.2706 14.7641 44.2706 14.7645 44.2706 14.7651C44.2706 14.7655 44.2706 14.766 44.2706 14.7664C44.2706 14.7668 44.2706 14.7674 44.2706 14.7678C44.2706 14.7683 44.2706 14.7687 44.2706 14.7693C44.2706 14.7697 44.2706 14.7701 44.2706 14.7706C44.2706 14.7711 44.2706 14.7716 44.2706 14.772C44.2706 14.7724 44.2706 14.7729 44.2706 14.7734C44.2706 14.7739 44.2706 14.7743 44.2706 14.7747C44.2706 14.7753 44.2706 14.7758 44.2706 14.7762C44.2706 14.7766 44.2706 14.7772 44.2706 14.7776C44.2706 14.7781 44.2706 14.7785 44.2706 14.7791C44.2706 14.7795 44.2706 14.7799 44.2706 14.7804C44.2706 14.7809 44.2706 14.7814 44.2706 14.7818C44.2706 14.7822 44.2706 14.7827 44.2706 14.7832C44.2706 14.7837 44.2706 14.7841 44.2706 14.7845C44.2706 14.7851 44.2706 14.7855 44.2706 14.786C44.2706 14.7864 44.2706 14.787 44.2706 14.7874C44.2706 14.7879 44.2706 14.7883 44.2706 14.7889C44.2706 14.7893 44.2706 14.7897 44.2706 14.7902C44.2706 14.7907 44.2706 14.7912 44.2706 14.7916C44.2706 14.792 44.2706 14.7926 44.2706 14.793C44.2706 14.7935 44.2706 14.794 44.2706 14.7945C44.2706 14.7949 44.2706 14.7953 44.2706 14.7959C44.2706 14.7963 44.2706 14.7968 44.2706 14.7972C44.2706 14.7978 44.2706 14.7982 44.2706 14.7987C44.2706 14.7991 44.2706 14.7997 44.2706 14.8001C44.2706 14.8005 44.2706 14.801 44.2706 14.8015C44.2706 14.802 44.2706 14.8024 44.2706 14.8028C44.2706 14.8034 44.2706 14.8038 44.2706 14.8043C44.2706 14.8048 44.2706 14.8053 44.2706 14.8057C44.2706 14.8061 44.2706 14.8067 44.2706 14.8071C44.2706 14.8076 44.2706 14.808 44.2706 14.8086C44.2706 14.809 44.2706 14.8095 44.2706 14.81C44.2706 14.8105 44.2706 14.8109 44.2706 14.8113C44.2706 14.8119 44.2706 14.8123 44.2706 14.8128C44.2706 14.8133 44.2706 14.8138 44.2706 14.8142C44.2706 14.8146 44.2706 14.8152 44.2706 14.8156C44.2706 14.8161 44.2706 14.8165 44.2706 14.8171C44.2706 14.8175 44.2706 14.8179 44.2706 14.8185C44.2706 14.819 44.2706 14.8194 44.2706 14.8198C44.2706 14.8204 44.2706 14.8208 44.2706 14.8213C44.2706 14.8218 44.2706 14.8223 44.2706 14.8227C44.2706 14.8231 44.2706 14.8237 44.2706 14.8241C44.2706 14.8246 44.2706 14.8251 44.2706 14.8256C44.2706 14.826 44.2706 14.8266 44.2706 14.827C44.2706 14.8274 44.2706 14.8279 44.2706 14.8285C44.2706 14.8289 44.2706 14.8293 44.2706 14.8299C44.2706 14.8303 44.2706 14.8308 44.2706 14.8312C44.2706 14.8318 44.2706 14.8322 44.2706 14.8326C44.2706 14.8332 44.2706 14.8336 44.2706 14.8341C44.2706 14.8346 44.2706 14.8351 44.2706 14.8355C44.2706 14.8361 44.2706 14.8365 44.2706 14.837C44.2706 14.8374 44.2706 14.838 44.2706 14.8384C44.2706 14.8388 44.2706 14.8394 44.2706 14.8398C44.2706 14.8403 44.2706 14.8408 44.2706 14.8413C44.2706 14.8417 44.2706 14.8423 44.2706 14.8427C44.2706 14.8431 44.2706 14.8436 44.2706 14.8442C44.2706 14.8446 44.2706 14.845 44.2706 14.8456C44.2706 14.846 44.2706 14.8465 44.2706 14.847C44.2706 14.8475 44.2706 14.8479 44.2706 14.8485C44.2706 14.8489 44.2706 14.8493 44.2706 14.8499C44.2706 14.8503 44.2706 14.8508 44.2706 14.8514C44.2706 14.8518 44.2706 14.8522 44.2706 14.8527C44.2706 14.8532 44.2706 14.8537 44.2706 14.8541C44.2706 14.8547 44.2706 14.8551 44.2706 14.8555C44.2706 14.8561 44.2706 14.8565 44.2706 14.857C44.2706 14.8575 44.2706 14.858 44.2706 14.8584C44.2706 14.859 44.2706 14.8594 44.2706 14.8598C44.2706 14.8604 44.2706 14.8609 44.2706 14.8613C44.2706 14.8619 44.2706 14.8623 44.2706 14.8627C44.2706 14.8633 44.2706 14.8637 44.2706 14.8642C44.2706 14.8647 44.2706 14.8652 44.2706 14.8656C44.2706 14.8662 44.2706 14.8666 44.2706 14.867C44.2706 14.8676 44.2706 14.8681 44.2706 14.8685C44.2706 14.8691 44.2706 14.8695 44.2706 14.8699C44.2706 14.8705 44.2706 14.8709 44.2706 14.8714C44.2706 14.8719 44.2706 14.8724 44.2706 14.873C44.2706 14.8734 44.2706 14.8738 44.2706 14.8744C44.2706 14.8748 44.2706 14.8753 44.2706 14.8758C44.2706 14.8763 44.2706 14.8767 44.2706 14.8773C44.2706 14.8777 44.2706 14.8781 44.2706 14.8787C44.2706 14.8791 44.2706 14.8796 44.2706 14.8802C44.2706 14.8806 44.2706 14.881 44.2706 14.8816C44.2706 14.882 44.2706 14.8826 44.2706 14.883C44.2706 14.8835 44.2706 14.884 44.2706 14.8845C44.2706 14.8849 44.2706 14.8855 44.2706 14.8859C44.2706 14.8863 44.2706 14.8869 44.2706 14.8874C44.2706 14.8878 44.2706 14.8884 44.2706 14.8888C44.2706 14.8894 44.2706 14.8898 44.2706 14.8902C44.2706 14.8908 44.2706 14.8912 44.2706 14.8917C44.2706 14.8923 44.2706 14.8927 44.2706 14.8931C44.2706 14.8937 44.2706 14.8941 44.2706 14.8947C44.2706 14.8951 44.2706 14.8956 44.2706 14.8961C44.2706 14.8966 44.2706 14.897 44.2706 14.8976C44.2706 14.898 44.2706 14.8986 44.2706 14.899C44.2706 14.8994 44.2706 14.9 44.2706 14.9005C44.2706 14.9009 44.2706 14.9015 44.2706 14.9019C44.2706 14.9025 44.2706 14.9029 44.2706 14.9033C44.2706 14.9039 44.2706 14.9043 44.2706 14.9048C44.2706 14.9054 44.2706 14.9058 44.2706 14.9064C44.2706 14.9068 44.2706 14.9072 44.2706 14.9078C44.2706 14.9082 44.2706 14.9087 44.2706 14.9092C44.2706 14.9097 44.2706 14.9103 44.2706 14.9107C44.2706 14.9111 44.2706 14.9117 44.2706 14.9121C44.2706 14.9127 44.2706 14.9131 44.2706 14.9136C44.2706 14.9141 44.2706 14.9146 44.2706 14.9151C44.2706 14.9156 44.2706 14.916 44.2706 14.9166C44.2706 14.917 44.2706 14.9174 44.2706 14.918C44.2706 14.9185 44.2706 14.919 44.2706 14.9195C44.2706 14.9199 44.2706 14.9205 44.2706 14.9209C44.2706 14.9215 44.2706 14.9219 44.2706 14.9223C44.2706 14.9229 44.2706 14.9234 44.2706 14.9239C44.2706 14.9244 44.2706 14.9248 44.2706 14.9254C44.2706 14.9258 44.2706 14.9264 44.2706 14.9268C44.2706 14.9272 44.2706 14.9278 44.2706 14.9282C44.2706 14.9288 44.2706 14.9293 44.2706 14.9297C44.2706 14.9303 44.2706 14.9307 44.2706 14.9313C44.2706 14.9317 44.2706 14.9323 44.2706 14.9327C44.2706 14.9331 44.2706 14.9337 44.2706 14.9342C44.2706 14.9347 44.2706 14.9352 44.2706 14.9356C44.2706 14.9362 44.2706 14.9366 44.2706 14.9372C44.2706 14.9376 44.2706 14.938 44.2706 14.9386C44.2706 14.9391 44.2706 14.9396 44.2706 14.9401C44.2706 14.9406 44.2706 14.9411 44.2706 14.9415C44.2706 14.9421 44.2706 14.9425 44.2706 14.9431C44.2706 14.9435 44.2706 14.9439 44.2706 14.9445C44.2706 14.945 44.2706 14.9455 44.2706 14.946C44.2706 14.9465 44.2706 14.947 44.2706 14.9474C44.2706 14.948 44.2706 14.9484 44.2706 14.949C44.2706 14.9494 44.2706 14.95 44.2706 14.9504C44.2706 14.9509 44.2706 14.9514 44.2706 14.9519C44.2706 14.9524 44.2706 14.9529 44.2706 14.9535C44.2706 14.9539 44.2706 14.9543 44.2706 14.9549C44.2706 14.9553 44.2706 14.9559 44.2706 14.9563C44.2706 14.9569 44.2706 14.9573 44.2706 14.9579C44.2706 14.9583 44.2706 14.9588 44.2706 14.9594C44.2706 14.9598 44.2706 14.9604 44.2706 14.9608C44.2706 14.9614 44.2706 14.9618 44.2706 14.9622C44.2706 14.9628 44.2706 14.9632 44.2706 14.9638C44.2706 14.9642 44.2706 14.9648 44.2706 14.9653C44.2706 14.9658 44.2706 14.9663 44.2706 14.9667C44.2706 14.9673 44.2706 14.9677 44.2706 14.9683C44.2706 14.9687 44.2706 14.9693 44.2706 14.9697C44.2706 14.9703 44.2706 14.9707 44.2706 14.9712C44.2706 14.9717 44.2706 14.9722 44.2706 14.9727C44.2706 14.9732 44.2706 14.9738 44.2706 14.9742C44.2706 14.9748 44.2706 14.9752 44.2706 14.9758C44.2706 14.9762 44.2706 14.9766 44.2706 14.9772C44.2706 14.9776 44.2706 14.9782 44.2706 14.9787C44.2706 14.9792 44.2706 14.9797 44.2706 14.9802C44.2706 14.9807 44.2706 14.9812 44.2706 14.9817C44.2706 14.9823 44.2706 14.9827 44.2706 14.9831C44.2706 14.9837 44.2706 14.9841 44.2706 14.9847C44.2706 14.9851 44.2706 14.9857 44.2706 14.9861C44.2706 14.9867 44.2706 14.9871 44.2706 14.9877C44.2706 14.9882 44.2706 14.9887 44.2706 14.9892C44.2706 14.9897 44.2706 14.9902 44.2706 14.9906C44.2706 14.9912 44.2706 14.9916 44.2706 14.9922C44.2706 14.9926 44.2706 14.9932 44.2706 14.9936C44.2706 14.9942 44.2706 14.9946 44.2706 14.9952C44.2706 14.9956 44.2706 14.9962 44.2706 14.9967C44.2706 14.9972 44.2706 14.9977 44.2706 14.9982C44.2706 14.9987 44.2706 14.9992 44.2706 14.9997C44.2706 15.0002 44.2706 15.0007 44.2706 15.0011C44.2706 15.0017 44.2706 15.0021 44.2706 15.0027C44.2706 15.0031 44.2706 15.0037 44.2706 15.0041C44.2706 15.0047 44.2706 15.0051 44.2706 15.0057C44.2706 15.0062 44.2706 15.0067 44.2706 15.0072C44.2706 15.0077 44.2706 15.0082 44.2706 15.0087C44.2706 15.0092 44.2706 15.0098 44.2706 15.0102C44.2706 15.0108 44.2706 15.0112 44.2706 15.0118C44.2706 15.0122 44.2706 15.0128 44.2706 15.0132C44.2706 15.0138 44.2706 15.0142 44.2706 15.0148C44.2706 15.0152 44.2706 15.0158 44.2706 15.0162C44.2706 15.0168 44.2706 15.0172 44.2706 15.0178C44.2706 15.0182 44.2706 15.0188 44.2706 15.0193C44.2706 15.0198 44.2706 15.0203 44.2706 15.0208C44.2706 15.0213 44.2706 15.0218 44.2706 15.0223C44.2706 15.0229 44.2706 15.0233 44.2706 15.0239C44.2706 15.0243 44.2706 15.0249 44.2706 15.0253C44.2706 15.0259 44.2706 15.0263 44.2706 15.0269C44.2706 15.0273 44.2706 15.0279 44.2706 15.0283C44.2706 15.0289 44.2706 15.0293 44.2706 15.0299C44.2706 15.0303 44.2706 15.0309 44.2706 15.0314C44.2706 15.0319 44.2706 15.0324 44.2706 15.0329C44.2706 15.0334 44.2706 15.0339 44.2706 15.0344C44.2706 15.035 44.2706 15.0355 44.2706 15.036C44.2706 15.0365 44.2706 15.037 44.2706 15.0375C44.2706 15.038 44.2706 15.0386 44.2706 15.039C44.2706 15.0396 44.2706 15.04 44.2706 15.0406C44.2706 15.041 44.2706 15.0416 44.2706 15.042C44.2706 15.0426 44.2706 15.043 44.2706 15.0436C44.2706 15.044 44.2706 15.0446 44.2706 15.045C44.2706 15.0456 44.2706 15.0462 44.2706 15.0466C44.2706 15.0472 44.2706 15.0476 44.2706 15.0482C44.2706 15.0486 44.2706 15.0492 44.2706 15.0496C44.2706 15.0502 44.2706 15.0507 44.2706 15.0512C44.2706 15.0517 44.2706 15.0522 44.2706 15.0527C44.2706 15.0532 44.2706 15.0538 44.2706 15.0542C44.2706 15.0548 44.2706 15.0553 44.2706 15.0558C44.2706 15.0563 44.2706 15.0568 44.2706 15.0573C44.2706 15.0578 44.2706 15.0583 44.2706 15.0589C44.2706 15.0593 44.2706 15.0599 44.2706 15.0604C44.2706 15.0609 44.2706 15.0614 44.2706 15.0619C44.2706 15.0625 44.2706 15.0629 44.2706 15.0635C44.2706 15.0639 44.2706 15.0645 44.2706 15.0649C44.2706 15.0655 44.2706 15.0661 44.2706 15.0665C44.2706 15.0671 44.2706 15.0675 44.2706 15.0681C44.2706 15.0685 44.2706 15.0691 44.2706 15.0695C44.2706 15.0701 44.2706 15.0707 44.2706 15.0711C44.2706 15.0717 44.2706 15.0721 44.2706 15.0727C44.2706 15.0731 44.2706 15.0737 44.2706 15.0741C44.2706 15.0747 44.2706 15.0753 44.2706 15.0757C44.2706 15.0763 44.2706 15.0767 44.2706 15.0773C44.2706 15.0777 44.2706 15.0783 44.2706 15.0789C44.2706 15.0793 44.2706 15.0799 44.2706 15.0803C44.2706 15.0809 44.2706 15.0813 44.2706 15.0819C44.2706 15.0823 44.2706 15.0829 44.2706 15.0835C44.2706 15.0839 44.2706 15.0845 44.2706 15.0849C44.2706 15.0855 44.2706 15.0859 44.2706 15.0865C44.2706 15.0871 44.2706 15.0875 44.2706 15.0881C44.2706 15.0885 44.2706 15.0891 44.2706 15.0895C44.2706 15.0901 44.2706 15.0907 44.2706 15.0911C44.2706 15.0917 44.2706 15.0921 44.2706 15.0927C44.2706 15.0931 44.2706 15.0937 44.2706 15.0943C44.2706 15.0947 44.2706 15.0953 44.2706 15.0957C44.2706 15.0963 44.2706 15.0969 44.2706 15.0973C44.2706 15.0979 44.2706 15.0983 44.2706 15.0989C44.2706 15.0993 44.2706 15.0999 44.2706 15.1005C44.2706 15.1009 44.2706 15.1015 44.2706 15.1019C44.2706 15.1025 44.2706 15.1031 44.2706 15.1035C44.2706 15.1041 44.2706 15.1045 44.2706 15.1051C44.2706 15.1057 44.2706 15.1061 44.2706 15.1067C44.2706 15.1071 44.2706 15.1077 44.2706 15.1081C44.2706 15.1087 44.2706 15.1093 44.2706 15.1097C44.2706 15.1103 44.2706 15.1107 44.2706 15.1113C44.2706 15.1118 44.2706 15.1123 44.2706 15.1129C44.2706 15.1133 44.2706 15.1139 44.2706 15.1144C44.2706 15.1149 44.2706 15.1154 44.2706 15.1159C44.2706 15.1165 44.2706 15.117 44.2706 15.1175C44.2706 15.118 44.2706 15.1185 44.2706 15.119C44.2706 15.1196 44.2706 15.1201 44.2706 15.1206C44.2706 15.1211 44.2706 15.1216 44.2706 15.1222C44.2706 15.1227 44.2706 15.1232 44.2706 15.1238C44.2706 15.1242 44.2706 15.1248 44.2706 15.1252C44.2706 15.1258 44.2706 15.1264 44.2706 15.1268C44.2706 15.1274 44.2706 15.1278 44.2706 15.1284C44.2706 15.129 44.2706 15.1294 44.2706 15.13C44.2706 15.1304 44.2706 15.131 44.2706 15.1316C44.2706 15.132 44.2706 15.1326 44.2706 15.1332C44.2706 15.1336 44.2706 15.1342 44.2706 15.1346C44.2706 15.1352 44.2706 15.1358 44.2706 15.1362C44.2706 15.1368 44.2706 15.1373 44.2706 15.1378C44.2706 15.1383 44.2706 15.1388 44.2706 15.1394C44.2706 15.1399 44.2706 15.1404 44.2706 15.1409C44.2706 15.1415 44.2706 15.1419 44.2706 15.1425C44.2706 15.143 44.2706 15.1435 44.2706 15.1441C44.2706 15.1445 44.2706 15.1451 44.2706 15.1457C44.2706 15.1461 44.2706 15.1467 44.2706 15.1471C44.2706 15.1477 44.2706 15.1483 44.2706 15.1487C44.2706 15.1493 44.2706 15.1499 44.2706 15.1503C44.2706 15.1509 44.2706 15.1514 44.2706 15.1519C44.2706 15.1525 44.2706 15.1529 44.2706 15.1535C44.2706 15.154 44.2706 15.1545 44.2706 15.155C44.2706 15.1556 44.2706 15.1561 44.2706 15.1566C44.2706 15.1572 44.2706 15.1576 44.2706 15.1582C44.2706 15.1588 44.2706 15.1592 44.2706 15.1598C44.2706 15.1602 44.2706 15.1608 44.2706 15.1614C44.2706 15.1618 44.2706 15.1624 44.2706 15.163C44.2706 15.1634 44.2706 15.164 44.2706 15.1646C44.2706 15.165 44.2706 15.1656 44.2706 15.1661C44.2706 15.1666 44.2706 15.1671 44.2706 15.1677C44.2706 15.1682 44.2706 15.1687 44.2706 15.1692C44.2706 15.1697 44.2706 15.1703 44.2706 15.1707C44.2706 15.1713 44.2706 15.1719 44.2706 15.1723C44.2706 15.1729 44.2706 15.1735 44.2706 15.1739C44.2706 15.1745 44.2706 15.1751 44.2706 15.1755C44.2706 15.1761 44.2706 15.1766 44.2706 15.1771C44.2706 15.1777 44.2706 15.1782 44.2706 15.1787C44.2706 15.1792 44.2706 15.1798 44.2706 15.1802C44.2706 15.1808 44.2706 15.1814 44.2706 15.1818C44.2706 15.1824 44.2706 15.183 44.2706 15.1834C44.2706 15.184 44.2706 15.1846 44.2706 15.185C44.2706 15.1856 44.2706 15.1862 44.2706 15.1866C44.2706 15.1872 44.2706 15.1877 44.2706 15.1882C44.2706 15.1887 44.2706 15.1893 44.2706 15.1898C44.2706 15.1903 44.2706 15.1909 44.2706 15.1913C44.2706 15.1919 44.2706 15.1925 44.2706 15.1931C44.2706 15.1935 44.2706 15.1941 44.2706 15.1947C44.2706 15.1951 44.2706 15.1957 44.2706 15.1962C44.2706 15.1967 44.2706 15.1972 44.2706 15.1978C44.2706 15.1982 44.2706 15.1988 44.2706 15.1994C44.2706 15.1998 44.2706 15.2004 44.2706 15.201C44.2706 15.2014 44.2706 15.202 44.2706 15.2026C44.2706 15.203 44.2706 15.2036 44.2706 15.2042C44.2706 15.2047 44.2706 15.2052 44.2706 15.2057C44.2706 15.2063 44.2706 15.2067 44.2706 15.2073C44.2706 15.2079 44.2706 15.2083 44.2706 15.2089C44.2706 15.2095 44.2706 15.2099 44.2706 15.2105C44.2706 15.2111 44.2706 15.2116 44.2706 15.2121C44.2706 15.2126 44.2706 15.2132 44.2706 15.2137C44.2706 15.2142 44.2706 15.2148 44.2706 15.2152C44.2706 15.2158 44.2706 15.2164 44.2706 15.217C44.2706 15.2174 44.2706 15.218 44.2706 15.2186C44.2706 15.219 44.2706 15.2196 44.2706 15.2201C44.2706 15.2207 44.2706 15.2211 44.2706 15.2217C44.2706 15.2223 44.2706 15.2227 44.2706 15.2233C44.2706 15.2239 44.2706 15.2243 44.2706 15.2249C44.2706 15.2255 44.2706 15.226 44.2706 15.2265C44.2706 15.227 44.2706 15.2276 44.2706 15.2281C44.2706 15.2286 44.2706 15.2292 44.2706 15.2298C44.2706 15.2302 44.2706 15.2308 44.2706 15.2314C44.2706 15.2318 44.2706 15.2324 44.2706 15.233C44.2706 15.2335 44.2706 15.234 44.2706 15.2345C44.2706 15.2351 44.2706 15.2355 44.2706 15.2361C44.2706 15.2367 44.2706 15.2373 44.2706 15.2377C44.2706 15.2383 44.2706 15.2389 44.2706 15.2394C44.2706 15.2399 44.2706 15.2404 44.2706 15.241C44.2706 15.2414 44.2706 15.242 44.2706 15.2426C44.2706 15.2432 44.2706 15.2436 44.2706 15.2442C44.2706 15.2448 44.2706 15.2453 44.2706 15.2458C44.2706 15.2463 44.2706 15.2469 44.2706 15.2474C44.2706 15.2479 44.2706 15.2485 44.2706 15.2491C44.2706 15.2495 44.2706 15.2501 44.2706 15.2507C44.2706 15.2512 44.2706 15.2517 44.2706 15.2522C44.2706 15.2528 44.2706 15.2534 44.2706 15.2538C44.2706 15.2544 44.2706 15.255 44.2706 15.2556C44.2706 15.256 44.2706 15.2566 44.2706 15.2571C44.2706 15.2576 44.2706 15.2582 44.2706 15.2587C44.2706 15.2593 44.2706 15.2597 44.2706 15.2603C44.2706 15.2609 44.2706 15.2615 44.2706 15.2619C44.2706 15.2625 44.2706 15.263 44.2706 15.2636C44.2706 15.2641 44.2706 15.2646 44.2706 15.2652C44.2706 15.2658 44.2706 15.2662 44.2706 15.2668C44.2706 15.2674 44.2706 15.2679 44.2706 15.2684C44.2706 15.269 44.2706 15.2695 44.2706 15.2701C44.2706 15.2705 44.2706 15.2711 44.2706 15.2717C44.2706 15.2723 44.2706 15.2727 44.2706 15.2733C44.2706 15.2738 44.2706 15.2744 44.2706 15.275C44.2706 15.2754 44.2706 15.276 44.2706 15.2766C44.2706 15.2772 44.2706 15.2776 44.2706 15.2782C44.2706 15.2787 44.2706 15.2793 44.2706 15.2798C44.2706 15.2803 44.2706 15.2809 44.2706 15.2815C44.2706 15.2819 44.2706 15.2825 44.2706 15.2831C44.2706 15.2836 44.2706 15.2842 44.2706 15.2847C44.2706 15.2852 44.2706 15.2858 44.2706 15.2864C44.2706 15.2868 44.2706 15.2874 44.2706 15.288C44.2706 15.2885 44.2706 15.289 44.2706 15.2895C44.2706 15.2901 44.2706 15.2907 44.2706 15.2913C44.2706 15.2917 44.2706 15.2923 44.2706 15.2929C44.2706 15.2934 44.2706 15.2939 44.2706 15.2944C44.2706 15.295 44.2706 15.2956 44.2706 15.2962H44.8466C44.8466 15.2956 44.8466 15.295 44.8466 15.2944C44.8466 15.2939 44.8466 15.2934 44.8466 15.2929C44.8466 15.2923 44.8466 15.2917 44.8466 15.2913C44.8466 15.2907 44.8466 15.2901 44.8466 15.2895C44.8466 15.289 44.8466 15.2885 44.8466 15.288C44.8466 15.2874 44.8466 15.2868 44.8466 15.2864C44.8466 15.2858 44.8466 15.2852 44.8466 15.2847C44.8466 15.2842 44.8466 15.2836 44.8466 15.2831C44.8466 15.2825 44.8466 15.2819 44.8466 15.2815C44.8466 15.2809 44.8466 15.2803 44.8466 15.2798C44.8466 15.2793 44.8466 15.2787 44.8466 15.2782C44.8466 15.2776 44.8466 15.2772 44.8466 15.2766C44.8466 15.276 44.8466 15.2754 44.8466 15.275C44.8466 15.2744 44.8466 15.2738 44.8466 15.2733C44.8466 15.2727 44.8466 15.2723 44.8466 15.2717C44.8466 15.2711 44.8466 15.2705 44.8466 15.2701C44.8466 15.2695 44.8466 15.269 44.8466 15.2684C44.8466 15.2679 44.8466 15.2674 44.8466 15.2668C44.8466 15.2662 44.8466 15.2658 44.8466 15.2652C44.8466 15.2646 44.8466 15.2641 44.8466 15.2636C44.8466 15.263 44.8466 15.2625 44.8466 15.2619C44.8466 15.2615 44.8466 15.2609 44.8466 15.2603C44.8466 15.2597 44.8466 15.2593 44.8466 15.2587C44.8466 15.2582 44.8466 15.2576 44.8466 15.2571C44.8466 15.2566 44.8466 15.256 44.8466 15.2556C44.8466 15.255 44.8466 15.2544 44.8466 15.2538C44.8466 15.2534 44.8466 15.2528 44.8466 15.2522C44.8466 15.2517 44.8466 15.2512 44.8466 15.2507C44.8466 15.2501 44.8466 15.2495 44.8466 15.2491C44.8466 15.2485 44.8466 15.2479 44.8466 15.2474C44.8466 15.2469 44.8466 15.2463 44.8466 15.2458C44.8466 15.2453 44.8466 15.2448 44.8466 15.2442C44.8466 15.2436 44.8466 15.2432 44.8466 15.2426C44.8466 15.242 44.8466 15.2414 44.8466 15.241C44.8466 15.2404 44.8466 15.2399 44.8466 15.2394C44.8466 15.2389 44.8466 15.2383 44.8466 15.2377C44.8466 15.2373 44.8466 15.2367 44.8466 15.2361C44.8466 15.2355 44.8466 15.2351 44.8466 15.2345C44.8466 15.234 44.8466 15.2335 44.8466 15.233C44.8466 15.2324 44.8466 15.2318 44.8466 15.2314C44.8466 15.2308 44.8466 15.2302 44.8466 15.2298C44.8466 15.2292 44.8466 15.2286 44.8466 15.2281C44.8466 15.2276 44.8466 15.227 44.8466 15.2265C44.8466 15.226 44.8466 15.2255 44.8466 15.2249C44.8466 15.2243 44.8466 15.2239 44.8466 15.2233C44.8466 15.2227 44.8466 15.2223 44.8466 15.2217C44.8466 15.2211 44.8466 15.2207 44.8466 15.2201C44.8466 15.2196 44.8466 15.219 44.8466 15.2186C44.8466 15.218 44.8466 15.2174 44.8466 15.217C44.8466 15.2164 44.8466 15.2158 44.8466 15.2152C44.8466 15.2148 44.8466 15.2142 44.8466 15.2137C44.8466 15.2132 44.8466 15.2126 44.8466 15.2121C44.8466 15.2116 44.8466 15.2111 44.8466 15.2105C44.8466 15.2099 44.8466 15.2095 44.8466 15.2089C44.8466 15.2083 44.8466 15.2079 44.8466 15.2073C44.8466 15.2067 44.8466 15.2063 44.8466 15.2057C44.8466 15.2052 44.8466 15.2047 44.8466 15.2042C44.8466 15.2036 44.8466 15.203 44.8466 15.2026C44.8466 15.202 44.8466 15.2014 44.8466 15.201C44.8466 15.2004 44.8466 15.1998 44.8466 15.1994C44.8466 15.1988 44.8466 15.1982 44.8466 15.1978C44.8466 15.1972 44.8466 15.1967 44.8466 15.1962C44.8466 15.1957 44.8466 15.1951 44.8466 15.1947C44.8466 15.1941 44.8466 15.1935 44.8466 15.1931C44.8466 15.1925 44.8466 15.1919 44.8466 15.1913C44.8466 15.1909 44.8466 15.1903 44.8466 15.1898C44.8466 15.1893 44.8466 15.1887 44.8466 15.1882C44.8466 15.1877 44.8466 15.1872 44.8466 15.1866C44.8466 15.1862 44.8466 15.1856 44.8466 15.185C44.8466 15.1846 44.8466 15.184 44.8466 15.1834C44.8466 15.183 44.8466 15.1824 44.8466 15.1818C44.8466 15.1814 44.8466 15.1808 44.8466 15.1802C44.8466 15.1798 44.8466 15.1792 44.8466 15.1787C44.8466 15.1782 44.8466 15.1777 44.8466 15.1771C44.8466 15.1766 44.8466 15.1761 44.8466 15.1755C44.8466 15.1751 44.8466 15.1745 44.8466 15.1739C44.8466 15.1735 44.8466 15.1729 44.8466 15.1723C44.8466 15.1719 44.8466 15.1713 44.8466 15.1707C44.8466 15.1703 44.8466 15.1697 44.8466 15.1692C44.8466 15.1687 44.8466 15.1682 44.8466 15.1677C44.8466 15.1671 44.8466 15.1666 44.8466 15.1661C44.8466 15.1656 44.8466 15.165 44.8466 15.1646C44.8466 15.164 44.8466 15.1634 44.8466 15.163C44.8466 15.1624 44.8466 15.1618 44.8466 15.1614C44.8466 15.1608 44.8466 15.1602 44.8466 15.1598C44.8466 15.1592 44.8466 15.1588 44.8466 15.1582C44.8466 15.1576 44.8466 15.1572 44.8466 15.1566C44.8466 15.1561 44.8466 15.1556 44.8466 15.155C44.8466 15.1545 44.8466 15.154 44.8466 15.1535C44.8466 15.1529 44.8466 15.1525 44.8466 15.1519C44.8466 15.1514 44.8466 15.1509 44.8466 15.1503C44.8466 15.1499 44.8466 15.1493 44.8466 15.1487C44.8466 15.1483 44.8466 15.1477 44.8466 15.1471C44.8466 15.1467 44.8466 15.1461 44.8466 15.1457C44.8466 15.1451 44.8466 15.1445 44.8466 15.1441C44.8466 15.1435 44.8466 15.143 44.8466 15.1425C44.8466 15.1419 44.8466 15.1415 44.8466 15.1409C44.8466 15.1404 44.8466 15.1399 44.8466 15.1394C44.8466 15.1388 44.8466 15.1383 44.8466 15.1378C44.8466 15.1373 44.8466 15.1368 44.8466 15.1362C44.8466 15.1358 44.8466 15.1352 44.8466 15.1346C44.8466 15.1342 44.8466 15.1336 44.8466 15.1332C44.8466 15.1326 44.8466 15.132 44.8466 15.1316C44.8466 15.131 44.8466 15.1304 44.8466 15.13C44.8466 15.1294 44.8466 15.129 44.8466 15.1284C44.8466 15.1278 44.8466 15.1274 44.8466 15.1268C44.8466 15.1264 44.8466 15.1258 44.8466 15.1252C44.8466 15.1248 44.8466 15.1242 44.8466 15.1238C44.8466 15.1232 44.8466 15.1227 44.8466 15.1222C44.8466 15.1216 44.8466 15.1211 44.8466 15.1206C44.8466 15.1201 44.8466 15.1196 44.8466 15.119C44.8466 15.1185 44.8466 15.118 44.8466 15.1175C44.8466 15.117 44.8466 15.1165 44.8466 15.1159C44.8466 15.1154 44.8466 15.1149 44.8466 15.1144C44.8466 15.1139 44.8466 15.1133 44.8466 15.1129C44.8466 15.1123 44.8466 15.1118 44.8466 15.1113C44.8466 15.1107 44.8466 15.1103 44.8466 15.1097C44.8466 15.1093 44.8466 15.1087 44.8466 15.1081C44.8466 15.1077 44.8466 15.1071 44.8466 15.1067C44.8466 15.1061 44.8466 15.1057 44.8466 15.1051C44.8466 15.1045 44.8466 15.1041 44.8466 15.1035C44.8466 15.1031 44.8466 15.1025 44.8466 15.1019C44.8466 15.1015 44.8466 15.1009 44.8466 15.1005C44.8466 15.0999 44.8466 15.0993 44.8466 15.0989C44.8466 15.0983 44.8466 15.0979 44.8466 15.0973C44.8466 15.0969 44.8466 15.0963 44.8466 15.0957C44.8466 15.0953 44.8466 15.0947 44.8466 15.0943C44.8466 15.0937 44.8466 15.0931 44.8466 15.0927C44.8466 15.0921 44.8466 15.0917 44.8466 15.0911C44.8466 15.0907 44.8466 15.0901 44.8466 15.0895C44.8466 15.0891 44.8466 15.0885 44.8466 15.0881C44.8466 15.0875 44.8466 15.0871 44.8466 15.0865C44.8466 15.0859 44.8466 15.0855 44.8466 15.0849C44.8466 15.0845 44.8466 15.0839 44.8466 15.0835C44.8466 15.0829 44.8466 15.0823 44.8466 15.0819C44.8466 15.0813 44.8466 15.0809 44.8466 15.0803C44.8466 15.0799 44.8466 15.0793 44.8466 15.0789C44.8466 15.0783 44.8466 15.0777 44.8466 15.0773C44.8466 15.0767 44.8466 15.0763 44.8466 15.0757C44.8466 15.0753 44.8466 15.0747 44.8466 15.0741C44.8466 15.0737 44.8466 15.0731 44.8466 15.0727C44.8466 15.0721 44.8466 15.0717 44.8466 15.0711C44.8466 15.0707 44.8466 15.0701 44.8466 15.0695C44.8466 15.0691 44.8466 15.0685 44.8466 15.0681C44.8466 15.0675 44.8466 15.0671 44.8466 15.0665C44.8466 15.0661 44.8466 15.0655 44.8466 15.0649C44.8466 15.0645 44.8466 15.0639 44.8466 15.0635C44.8466 15.0629 44.8466 15.0625 44.8466 15.0619C44.8466 15.0614 44.8466 15.0609 44.8466 15.0604C44.8466 15.0599 44.8466 15.0593 44.8466 15.0589C44.8466 15.0583 44.8466 15.0578 44.8466 15.0573C44.8466 15.0568 44.8466 15.0563 44.8466 15.0558C44.8466 15.0553 44.8466 15.0548 44.8466 15.0542C44.8466 15.0538 44.8466 15.0532 44.8466 15.0527C44.8466 15.0522 44.8466 15.0517 44.8466 15.0512C44.8466 15.0507 44.8466 15.0502 44.8466 15.0496C44.8466 15.0492 44.8466 15.0486 44.8466 15.0482C44.8466 15.0476 44.8466 15.0472 44.8466 15.0466C44.8466 15.0462 44.8466 15.0456 44.8466 15.045C44.8466 15.0446 44.8466 15.044 44.8466 15.0436C44.8466 15.043 44.8466 15.0426 44.8466 15.042C44.8466 15.0416 44.8466 15.041 44.8466 15.0406C44.8466 15.04 44.8466 15.0396 44.8466 15.039C44.8466 15.0386 44.8466 15.038 44.8466 15.0375C44.8466 15.037 44.8466 15.0365 44.8466 15.036C44.8466 15.0355 44.8466 15.035 44.8466 15.0344C44.8466 15.0339 44.8466 15.0334 44.8466 15.0329C44.8466 15.0324 44.8466 15.0319 44.8466 15.0314C44.8466 15.0309 44.8466 15.0303 44.8466 15.0299C44.8466 15.0293 44.8466 15.0289 44.8466 15.0283C44.8466 15.0279 44.8466 15.0273 44.8466 15.0269C44.8466 15.0263 44.8466 15.0259 44.8466 15.0253C44.8466 15.0249 44.8466 15.0243 44.8466 15.0239C44.8466 15.0233 44.8466 15.0229 44.8466 15.0223C44.8466 15.0218 44.8466 15.0213 44.8466 15.0208C44.8466 15.0203 44.8466 15.0198 44.8466 15.0193C44.8466 15.0188 44.8466 15.0182 44.8466 15.0178C44.8466 15.0172 44.8466 15.0168 44.8466 15.0162C44.8466 15.0158 44.8466 15.0152 44.8466 15.0148C44.8466 15.0142 44.8466 15.0138 44.8466 15.0132C44.8466 15.0128 44.8466 15.0122 44.8466 15.0118C44.8466 15.0112 44.8466 15.0108 44.8466 15.0102C44.8466 15.0098 44.8466 15.0092 44.8466 15.0087C44.8466 15.0082 44.8466 15.0077 44.8466 15.0072C44.8466 15.0067 44.8466 15.0062 44.8466 15.0057C44.8466 15.0051 44.8466 15.0047 44.8466 15.0041C44.8466 15.0037 44.8466 15.0031 44.8466 15.0027C44.8466 15.0021 44.8466 15.0017 44.8466 15.0011C44.8466 15.0007 44.8466 15.0002 44.8466 14.9997C44.8466 14.9992 44.8466 14.9987 44.8466 14.9982C44.8466 14.9977 44.8466 14.9972 44.8466 14.9967C44.8466 14.9962 44.8466 14.9956 44.8466 14.9952C44.8466 14.9946 44.8466 14.9942 44.8466 14.9936C44.8466 14.9932 44.8466 14.9926 44.8466 14.9922C44.8466 14.9916 44.8466 14.9912 44.8466 14.9906C44.8466 14.9902 44.8466 14.9897 44.8466 14.9892C44.8466 14.9887 44.8466 14.9882 44.8466 14.9877C44.8466 14.9871 44.8466 14.9867 44.8466 14.9861C44.8466 14.9857 44.8466 14.9851 44.8466 14.9847C44.8466 14.9841 44.8466 14.9837 44.8466 14.9831C44.8466 14.9827 44.8466 14.9823 44.8466 14.9817C44.8466 14.9812 44.8466 14.9807 44.8466 14.9802C44.8466 14.9797 44.8466 14.9792 44.8466 14.9787C44.8466 14.9782 44.8466 14.9776 44.8466 14.9772C44.8466 14.9766 44.8466 14.9762 44.8466 14.9758C44.8466 14.9752 44.8466 14.9748 44.8466 14.9742C44.8466 14.9738 44.8466 14.9732 44.8466 14.9727C44.8466 14.9722 44.8466 14.9717 44.8466 14.9712C44.8466 14.9707 44.8466 14.9703 44.8466 14.9697C44.8466 14.9693 44.8466 14.9687 44.8466 14.9683C44.8466 14.9677 44.8466 14.9673 44.8466 14.9667C44.8466 14.9663 44.8466 14.9658 44.8466 14.9653C44.8466 14.9648 44.8466 14.9642 44.8466 14.9638C44.8466 14.9632 44.8466 14.9628 44.8466 14.9622C44.8466 14.9618 44.8466 14.9614 44.8466 14.9608C44.8466 14.9604 44.8466 14.9598 44.8466 14.9594C44.8466 14.9588 44.8466 14.9583 44.8466 14.9579C44.8466 14.9573 44.8466 14.9569 44.8466 14.9563C44.8466 14.9559 44.8466 14.9553 44.8466 14.9549C44.8466 14.9543 44.8466 14.9539 44.8466 14.9535C44.8466 14.9529 44.8466 14.9524 44.8466 14.9519C44.8466 14.9514 44.8466 14.9509 44.8466 14.9504C44.8466 14.95 44.8466 14.9494 44.8466 14.949C44.8466 14.9484 44.8466 14.948 44.8466 14.9474C44.8466 14.947 44.8466 14.9465 44.8466 14.946C44.8466 14.9455 44.8466 14.945 44.8466 14.9445C44.8466 14.9439 44.8466 14.9435 44.8466 14.9431C44.8466 14.9425 44.8466 14.9421 44.8466 14.9415C44.8466 14.9411 44.8466 14.9406 44.8466 14.9401C44.8466 14.9396 44.8466 14.9391 44.8466 14.9386C44.8466 14.938 44.8466 14.9376 44.8466 14.9372C44.8466 14.9366 44.8466 14.9362 44.8466 14.9356C44.8466 14.9352 44.8466 14.9347 44.8466 14.9342C44.8466 14.9337 44.8466 14.9331 44.8466 14.9327C44.8466 14.9323 44.8466 14.9317 44.8466 14.9313C44.8466 14.9307 44.8466 14.9303 44.8466 14.9297C44.8466 14.9293 44.8466 14.9288 44.8466 14.9282C44.8466 14.9278 44.8466 14.9272 44.8466 14.9268C44.8466 14.9264 44.8466 14.9258 44.8466 14.9254C44.8466 14.9248 44.8466 14.9244 44.8466 14.9239C44.8466 14.9234 44.8466 14.9229 44.8466 14.9223C44.8466 14.9219 44.8466 14.9215 44.8466 14.9209C44.8466 14.9205 44.8466 14.9199 44.8466 14.9195C44.8466 14.919 44.8466 14.9185 44.8466 14.918C44.8466 14.9174 44.8466 14.917 44.8466 14.9166C44.8466 14.916 44.8466 14.9156 44.8466 14.9151C44.8466 14.9146 44.8466 14.9141 44.8466 14.9136C44.8466 14.9131 44.8466 14.9127 44.8466 14.9121C44.8466 14.9117 44.8466 14.9111 44.8466 14.9107C44.8466 14.9103 44.8466 14.9097 44.8466 14.9092C44.8466 14.9087 44.8466 14.9082 44.8466 14.9078C44.8466 14.9072 44.8466 14.9068 44.8466 14.9064C44.8466 14.9058 44.8466 14.9054 44.8466 14.9048C44.8466 14.9043 44.8466 14.9039 44.8466 14.9033C44.8466 14.9029 44.8466 14.9025 44.8466 14.9019C44.8466 14.9015 44.8466 14.9009 44.8466 14.9005C44.8466 14.9 44.8466 14.8994 44.8466 14.899C44.8466 14.8986 44.8466 14.898 44.8466 14.8976C44.8466 14.897 44.8466 14.8966 44.8466 14.8961C44.8466 14.8956 44.8466 14.8951 44.8466 14.8947C44.8466 14.8941 44.8466 14.8937 44.8466 14.8931C44.8466 14.8927 44.8466 14.8923 44.8466 14.8917C44.8466 14.8912 44.8466 14.8908 44.8466 14.8902C44.8466 14.8898 44.8466 14.8894 44.8466 14.8888C44.8466 14.8884 44.8466 14.8878 44.8466 14.8874C44.8466 14.8869 44.8466 14.8863 44.8466 14.8859C44.8466 14.8855 44.8466 14.8849 44.8466 14.8845C44.8466 14.884 44.8466 14.8835 44.8466 14.883C44.8466 14.8826 44.8466 14.882 44.8466 14.8816C44.8466 14.881 44.8466 14.8806 44.8466 14.8802C44.8466 14.8796 44.8466 14.8791 44.8466 14.8787C44.8466 14.8781 44.8466 14.8777 44.8466 14.8773C44.8466 14.8767 44.8466 14.8763 44.8466 14.8758C44.8466 14.8753 44.8466 14.8748 44.8466 14.8744C44.8466 14.8738 44.8466 14.8734 44.8466 14.873C44.8466 14.8724 44.8466 14.8719 44.8466 14.8714C44.8466 14.8709 44.8466 14.8705 44.8466 14.8699C44.8466 14.8695 44.8466 14.8691 44.8466 14.8685C44.8466 14.8681 44.8466 14.8676 44.8466 14.867C44.8466 14.8666 44.8466 14.8662 44.8466 14.8656C44.8466 14.8652 44.8466 14.8647 44.8466 14.8642C44.8466 14.8637 44.8466 14.8633 44.8466 14.8627C44.8466 14.8623 44.8466 14.8619 44.8466 14.8613C44.8466 14.8609 44.8466 14.8604 44.8466 14.8598C44.8466 14.8594 44.8466 14.859 44.8466 14.8584C44.8466 14.858 44.8466 14.8575 44.8466 14.857C44.8466 14.8565 44.8466 14.8561 44.8466 14.8555C44.8466 14.8551 44.8466 14.8547 44.8466 14.8541C44.8466 14.8537 44.8466 14.8532 44.8466 14.8527C44.8466 14.8522 44.8466 14.8518 44.8466 14.8514C44.8466 14.8508 44.8466 14.8503 44.8466 14.8499C44.8466 14.8493 44.8466 14.8489 44.8466 14.8485C44.8466 14.8479 44.8466 14.8475 44.8466 14.847C44.8466 14.8465 44.8466 14.846 44.8466 14.8456C44.8466 14.845 44.8466 14.8446 44.8466 14.8442C44.8466 14.8436 44.8466 14.8431 44.8466 14.8427C44.8466 14.8423 44.8466 14.8417 44.8466 14.8413C44.8466 14.8408 44.8466 14.8403 44.8466 14.8398C44.8466 14.8394 44.8466 14.8388 44.8466 14.8384C44.8466 14.838 44.8466 14.8374 44.8466 14.837C44.8466 14.8365 44.8466 14.8361 44.8466 14.8355C44.8466 14.8351 44.8466 14.8346 44.8466 14.8341C44.8466 14.8336 44.8466 14.8332 44.8466 14.8326C44.8466 14.8322 44.8466 14.8318 44.8466 14.8312C44.8466 14.8308 44.8466 14.8303 44.8466 14.8299C44.8466 14.8293 44.8466 14.8289 44.8466 14.8285C44.8466 14.8279 44.8466 14.8274 44.8466 14.827C44.8466 14.8266 44.8466 14.826 44.8466 14.8256C44.8466 14.8251 44.8466 14.8246 44.8466 14.8241C44.8466 14.8237 44.8466 14.8231 44.8466 14.8227C44.8466 14.8223 44.8466 14.8218 44.8466 14.8213C44.8466 14.8208 44.8466 14.8204 44.8466 14.8198C44.8466 14.8194 44.8466 14.819 44.8466 14.8185C44.8466 14.8179 44.8466 14.8175 44.8466 14.8171C44.8466 14.8165 44.8466 14.8161 44.8466 14.8156C44.8466 14.8152 44.8466 14.8146 44.8466 14.8142C44.8466 14.8138 44.8466 14.8133 44.8466 14.8128C44.8466 14.8123 44.8466 14.8119 44.8466 14.8113C44.8466 14.8109 44.8466 14.8105 44.8466 14.81C44.8466 14.8095 44.8466 14.809 44.8466 14.8086C44.8466 14.808 44.8466 14.8076 44.8466 14.8071C44.8466 14.8067 44.8466 14.8061 44.8466 14.8057C44.8466 14.8053 44.8466 14.8048 44.8466 14.8043C44.8466 14.8038 44.8466 14.8034 44.8466 14.8028C44.8466 14.8024 44.8466 14.802 44.8466 14.8015C44.8466 14.801 44.8466 14.8005 44.8466 14.8001C44.8466 14.7997 44.8466 14.7991 44.8466 14.7987C44.8466 14.7982 44.8466 14.7978 44.8466 14.7972C44.8466 14.7968 44.8466 14.7963 44.8466 14.7959C44.8466 14.7953 44.8466 14.7949 44.8466 14.7945C44.8466 14.794 44.8466 14.7935 44.8466 14.793C44.8466 14.7926 44.8466 14.792 44.8466 14.7916C44.8466 14.7912 44.8466 14.7907 44.8466 14.7902C44.8466 14.7897 44.8466 14.7893 44.8466 14.7889C44.8466 14.7883 44.8466 14.7879 44.8466 14.7874C44.8466 14.787 44.8466 14.7864 44.8466 14.786C44.8466 14.7855 44.8466 14.7851 44.8466 14.7845C44.8466 14.7841 44.8466 14.7837 44.8466 14.7832C44.8466 14.7827 44.8466 14.7822 44.8466 14.7818C44.8466 14.7814 44.8466 14.7809 44.8466 14.7804C44.8466 14.7799 44.8466 14.7795 44.8466 14.7791C44.8466 14.7785 44.8466 14.7781 44.8466 14.7776C44.8466 14.7772 44.8466 14.7766 44.8466 14.7762C44.8466 14.7758 44.8466 14.7753 44.8466 14.7747C44.8466 14.7743 44.8466 14.7739 44.8466 14.7734C44.8466 14.7729 44.8466 14.7724 44.8466 14.772C44.8466 14.7716 44.8466 14.7711 44.8466 14.7706C44.8466 14.7701 44.8466 14.7697 44.8466 14.7693C44.8466 14.7687 44.8466 14.7683 44.8466 14.7678C44.8466 14.7674 44.8466 14.7668 44.8466 14.7664C44.8466 14.766 44.8466 14.7655 44.8466 14.7651C44.8466 14.7645 44.8466 14.7641 44.8466 14.7637C44.8466 14.7632 44.8466 14.7626 44.8466 14.7622C44.8466 14.7618 44.8466 14.7614 44.8466 14.7609C44.8466 14.7603 44.8466 14.7599 44.8466 14.7595C44.8466 14.7591 44.8466 14.7585 44.8466 14.758C44.8466 14.7576 44.8466 14.7572 44.8466 14.7567C44.8466 14.7562 44.8466 14.7557 44.8466 14.7553C44.8466 14.7549 44.8466 14.7544 44.8466 14.7539C44.8466 14.7534 44.8466 14.753 44.8466 14.7526C44.8466 14.752 44.8466 14.7516 44.8466 14.7511C44.8466 14.7507 44.8466 14.7503 44.8466 14.7497C44.8466 14.7493 44.8466 14.7488 44.8466 14.7484C44.8466 14.748 44.8466 14.7474 44.8466 14.747C44.8466 14.7465 44.8466 14.7461 44.8466 14.7457C44.8466 14.7451 44.8466 14.7446 44.8466 14.7442C44.8466 14.7438 44.8466 14.7434 44.8466 14.7428C44.8466 14.7423 44.8466 14.7419 44.8466 14.7415C44.8466 14.741 44.8466 14.7405 44.8466 14.74C44.8466 14.7396 44.8466 14.7392 44.8466 14.7387C44.8466 14.7382 44.8466 14.7377 44.8466 14.7373C44.8466 14.7369 44.8466 14.7364 44.8466 14.7359C44.8466 14.7354 44.8466 14.735 44.8466 14.7346C44.8466 14.7341 44.8466 14.7337 44.8466 14.7331C44.8466 14.7327 44.8466 14.7323 44.8466 14.7318C44.8466 14.7314 44.8466 14.7308 44.8466 14.7304C44.8466 14.73 44.8466 14.7295 44.8466 14.7291C44.8466 14.7285 44.8466 14.7281 44.8466 14.7277C44.8466 14.7272 44.8466 14.7268 44.8466 14.7264C44.8466 14.7258 44.8466 14.7254 44.8466 14.7249C44.8466 14.7245 44.8466 14.7241 44.8466 14.7235C44.8466 14.7231 44.8466 14.7226 44.8466 14.7222C44.8466 14.7218 44.8466 14.7213 44.8466 14.7207C44.8466 14.7203 44.8466 14.7199 44.8466 14.7194C44.8466 14.719 44.8466 14.7186 44.8466 14.718C44.8466 14.7176 44.8466 14.7171 44.8466 14.7167C44.8466 14.7163 44.8466 14.7158 44.8466 14.7153C44.8466 14.7148 44.8466 14.7144 44.8466 14.714C44.8466 14.7135 44.8466 14.7131 44.8466 14.7125C44.8466 14.7121 44.8466 14.7117 44.8466 14.7112C44.8466 14.7108 44.8466 14.7104 44.8466 14.7098C44.8466 14.7094 44.8466 14.7089 44.8466 14.7085C44.8466 14.7081 44.8466 14.7076 44.8466 14.7071C44.8466 14.7066 44.8466 14.7062 44.8466 14.7058C44.8466 14.7053 44.8466 14.7049 44.8466 14.7045C44.8466 14.7039 44.8466 14.7035 44.8466 14.703C44.8466 14.7026 44.8466 14.7022 44.8466 14.7017C44.8466 14.7012 44.8466 14.7007 44.8466 14.7003C44.8466 14.6999 44.8466 14.6994 44.8466 14.699C44.8466 14.6986 44.8466 14.698 44.8466 14.6976C44.8466 14.6971 44.8466 14.6967 44.8466 14.6963C44.8466 14.6958 44.8466 14.6954 44.8466 14.6948C44.8466 14.6944 44.8466 14.694 44.8466 14.6935C44.8466 14.6931 44.8466 14.6927 44.8466 14.6922C44.8466 14.6917 44.8466 14.6912 44.8466 14.6908C44.8466 14.6904 44.8466 14.6899 44.8466 14.6895C44.8466 14.6891 44.8466 14.6885 44.8466 14.6881C44.8466 14.6876 44.8466 14.6872 44.8466 14.6868C44.8466 14.6863 44.8466 14.6859 44.8466 14.6853C44.8466 14.6849 44.8466 14.6845 44.8466 14.684C44.8466 14.6836 44.8466 14.6832 44.8466 14.6827C44.8466 14.6823 44.8466 14.6817 44.8466 14.6813C44.8466 14.6809 44.8466 14.6804 44.8466 14.68C44.8466 14.6796 44.8466 14.6791 44.8466 14.6787C44.8466 14.6781 44.8466 14.6777 44.8466 14.6773C44.8466 14.6768 44.8466 14.6764 44.8466 14.676C44.8466 14.6755 44.8466 14.6751 44.8466 14.6745C44.8466 14.6741 44.8466 14.6737 44.8466 14.6732C44.8466 14.6728 44.8466 14.6724 44.8466 14.6719C44.8466 14.6715 44.8466 14.6709 44.8466 14.6705C44.8466 14.6701 44.8466 14.6696 44.8466 14.6692C44.8466 14.6688 44.8466 14.6683 44.8466 14.6679C44.8466 14.6675 44.8466 14.6669 44.8466 14.6665C44.8466 14.666 44.8466 14.6656 44.8466 14.6652C44.8466 14.6647 44.8466 14.6643 44.8466 14.6639C44.8466 14.6634 44.8466 14.6629 44.8466 14.6624C44.8466 14.662 44.8466 14.6616 44.8466 14.6611C44.8466 14.6607 44.8466 14.6603 44.8466 14.6598C44.8466 14.6594 44.8466 14.659 44.8466 14.6584C44.8466 14.658 44.8466 14.6575 44.8466 14.6571C44.8466 14.6567 44.8466 14.6562 44.8466 14.6558C44.8466 14.6554 44.8466 14.6549 44.8466 14.6545C44.8466 14.6539 44.8466 14.6535 44.8466 14.6531C44.8466 14.6526 44.8466 14.6522 44.8466 14.6518C44.8466 14.6513 44.8466 14.6509 44.8466 14.6505C44.8466 14.65 44.8466 14.6496 44.8466 14.649C44.8466 14.6486 44.8466 14.6482 44.8466 14.6477C44.8466 14.6473 44.8466 14.6469 44.8466 14.6464C44.8466 14.646 44.8466 14.6456 44.8466 14.6451C44.8466 14.6447 44.8466 14.6441 44.8466 14.6437C44.8466 14.6433 44.8466 14.6428 44.8466 14.6424C44.8466 14.642 44.8466 14.6415 44.8466 14.6411C44.8466 14.6407 44.8466 14.6402 44.8466 14.6398C44.8466 14.6394 44.8466 14.6388 44.8466 14.6384C44.8466 14.6379 44.8466 14.6375 44.8466 14.6371C44.8466 14.6366 44.8466 14.6362 44.8466 14.6358C44.8466 14.6354 44.8466 14.6349 44.8466 14.6345C44.8466 14.6341 44.8466 14.6336 44.8466 14.6332C44.8466 14.6326 44.8466 14.6322 44.8466 14.6318C44.8466 14.6313 44.8466 14.6309 44.8466 14.6305C44.8466 14.63 44.8466 14.6296 44.8466 14.6292C44.8466 14.6287 44.8466 14.6283 44.8466 14.6279C44.8466 14.6274 44.8466 14.627 44.8466 14.6264C44.8466 14.626 44.8466 14.6256 44.8466 14.6251C44.8466 14.6247 44.8466 14.6243 44.8466 14.6238C44.8466 14.6234 44.8466 14.623 44.8466 14.6225C44.8466 14.6221 44.8466 14.6217 44.8466 14.6212C44.8466 14.6208 44.8466 14.6204 44.8466 14.6199C44.8466 14.6195 44.8466 14.6189 44.8466 14.6185C44.8466 14.6181 44.8466 14.6176 44.8466 14.6172C44.8466 14.6168 44.8466 14.6163 44.8466 14.6159C44.8466 14.6155 44.8466 14.6151 44.8466 14.6146C44.8466 14.6142 44.8466 14.6138 44.8466 14.6133C44.8466 14.6129 44.8466 14.6125 44.8466 14.612C44.8466 14.6116 44.8466 14.6112 44.8466 14.6107C44.8466 14.6103 44.8466 14.6097 44.8466 14.6093C44.8466 14.6089 44.8466 14.6084 44.8466 14.608C44.8466 14.6076 44.8466 14.6071 44.8466 14.6067C44.8466 14.6063 44.8466 14.6058 44.8466 14.6054C44.8466 14.605 44.8466 14.6045 44.8466 14.6041C44.8466 14.6037 44.8466 14.6032 44.8466 14.6028C44.8466 14.6024 44.8466 14.6019 44.8466 14.6015C44.8466 14.6011 44.8466 14.6006 44.8466 14.6002C44.8466 14.5998 44.8466 14.5994 44.8466 14.5989C44.8466 14.5985 44.8466 14.5979 44.8466 14.5975C44.8466 14.597 44.8466 14.5966 44.8466 14.5962C44.8466 14.5958 44.8466 14.5953 44.8466 14.5949C44.8466 14.5945 44.8466 14.594 44.8466 14.5936C44.8466 14.5932 44.8466 14.5927 44.8466 14.5923C44.8466 14.5919 44.8466 14.5914 44.8466 14.591C44.8466 14.5906 44.8466 14.5901 44.8466 14.5897C44.8466 14.5893 44.8466 14.5888 44.8466 14.5884C44.8466 14.588 44.8466 14.5875 44.8466 14.5871C44.8466 14.5867 44.8466 14.5862 44.8466 14.5858C44.8466 14.5854 44.8466 14.585 44.8466 14.5845C44.8466 14.5841 44.8466 14.5837 44.8466 14.5832C44.8466 14.5828 44.8466 14.5824 44.8466 14.5819C44.8466 14.5815 44.8466 14.5811 44.8466 14.5806C44.8466 14.5802 44.8466 14.5798 44.8466 14.5793C44.8466 14.5789 44.8466 14.5785 44.8466 14.578C44.8466 14.5776 44.8466 14.5772 44.8466 14.5767C44.8466 14.5763 44.8466 14.5759 44.8466 14.5754C44.8466 14.575 44.8466 14.5746 44.8466 14.5742C44.8466 14.5737 44.8466 14.5733 44.8466 14.5729C44.8466 14.5724 44.8466 14.572 44.8466 14.5716C44.8466 14.5711 44.8466 14.5707 44.8466 14.5703C44.8466 14.5698 44.8466 14.5694 44.8466 14.569C44.8466 14.5685 44.8466 14.5681 44.8466 14.5677C44.8466 14.5672 44.8466 14.5668 44.8466 14.5664C44.8466 14.5659 44.8466 14.5655 44.8466 14.5651C44.8466 14.5646 44.8466 14.5642 44.8466 14.5638C44.8466 14.5634 44.8466 14.5629 44.8466 14.5625C44.8466 14.5621 44.8466 14.5616 44.8466 14.5612C44.8466 14.5608 44.8466 14.5603 44.8466 14.5599C44.8466 14.5595 44.8466 14.559 44.8466 14.5586C44.8466 14.5582 44.8466 14.5577 44.8466 14.5573C44.8466 14.5569 44.8466 14.5564 44.8466 14.556C44.8466 14.5556 44.8466 14.5551 44.8466 14.5547C44.8466 14.5543 44.8466 14.5539 44.8466 14.5534C44.8466 14.553 44.8466 14.5526 44.8466 14.5521C44.8466 14.5517 44.8466 14.5513 44.8466 14.5508C44.8466 14.5504 44.8466 14.5501 44.8466 14.5497H44.2706ZM44.5586 15.0082H32.7639V15.5842H44.5586V15.0082ZM32.4764 15.3113C32.5379 16.4801 32.8054 17.4749 33.2939 18.2819L33.7866 17.9836C33.3594 17.2778 33.1094 16.3814 33.0515 15.2809L32.4764 15.3113ZM33.2986 18.2895C33.7997 19.0619 34.4212 19.6545 35.1646 20.0581L35.4395 19.5518C34.7893 19.1989 34.2363 18.6767 33.7819 17.976L33.2986 18.2895ZM35.1676 20.0597C35.9249 20.4593 36.7274 20.6603 37.5714 20.6603V20.0843C36.8229 20.0843 36.1124 19.907 35.4364 19.5502L35.1676 20.0597ZM37.5714 20.6603C38.6514 20.6603 39.5775 20.4106 40.332 19.8932L40.0063 19.4182C39.3674 19.8562 38.5617 20.0843 37.5714 20.0843V20.6603ZM40.332 19.8932C41.0784 19.3815 41.6217 18.6874 41.9604 17.8195L41.4237 17.6101C41.1255 18.3745 40.6536 18.9744 40.0063 19.4182L40.332 19.8932ZM41.6921 18.0028H44.1703V17.4268H41.6921V18.0028ZM43.8939 17.6346C43.5124 18.9503 42.78 20.0451 41.6904 20.9246L42.0521 21.3728C43.2317 20.4208 44.0321 19.2264 44.447 17.795L43.8939 17.6346ZM41.6908 20.9241C40.6379 21.7703 39.2727 22.2043 37.5714 22.2043V22.7803C39.3736 22.7803 40.8749 22.3186 42.0517 21.3731L41.6908 20.9241ZM37.5714 8.79731C36.3125 8.79731 35.1847 9.18711 34.1982 9.96385L34.5544 10.4163C35.4392 9.71991 36.4414 9.37331 37.5714 9.37331V8.79731ZM34.1989 9.96327C33.2089 10.738 32.6526 11.8721 32.5072 13.3265L33.0803 13.3838C33.2137 12.0514 33.7125 11.0754 34.5539 10.4169L34.1989 9.96327ZM32.7938 13.6432H42.1101V13.0672H32.7938V13.6432ZM42.3978 13.3424C42.3352 11.9449 41.8516 10.8211 40.9272 10.0042L40.5459 10.4357C41.3334 11.1317 41.7655 12.0981 41.8224 13.3682L42.3978 13.3424ZM40.9272 10.0042C40.0133 9.19647 38.8883 8.79731 37.5714 8.79731V9.37331C38.7627 9.37331 39.7478 9.73043 40.5459 10.4357L40.9272 10.0042Z" fill="black"/>
</g>
</svg>
